<svg width="72" height="72" viewBox="0 0 72 72" fill="none" xmlns="http://www.w3.org/2000/svg">
<path d="M38.4 19.5C43.2 19.75 47.25 21.6 50.55 25.05C53.85 28.5 55.5 32.65 55.5 37.5C55.5 42.5 53.75 46.75 50.25 50.25C46.75 53.75 42.5 55.5 37.5 55.5C32.65 55.5 28.5 53.85 25.05 50.55C21.6 47.25 19.75 43.2 19.5 38.4L25.8 40.275C26.45 42.975 27.85 45.1875 30 46.9125C32.15 48.6375 34.65 49.5 37.5 49.5C40.8 49.5 43.625 48.325 45.975 45.975C48.325 43.625 49.5 40.8 49.5 37.5C49.5 34.65 48.6375 32.15 46.9125 30C45.1875 27.85 42.975 26.45 40.275 25.8L38.4 19.5ZM34.8 7.65C35.25 7.55 35.7 7.5 36.15 7.5H37.5C41.65 7.5 45.55 8.2875 49.2 9.8625C52.85 11.4375 56.025 13.575 58.725 16.275C61.425 18.975 63.5625 22.15 65.1375 25.8C66.7125 29.45 67.5 33.35 67.5 37.5C67.5 41.65 66.7125 45.55 65.1375 49.2C63.5625 52.85 61.425 56.025 58.725 58.725C56.025 61.425 52.85 63.5625 49.2 65.1375C45.55 66.7125 41.65 67.5 37.5 67.5C33.35 67.5 29.45 66.7125 25.8 65.1375C22.15 63.5625 18.975 61.425 16.275 58.725C13.575 56.025 11.4375 52.85 9.8625 49.2C8.2875 45.55 7.5 41.65 7.5 37.5V36.15C7.5 35.7 7.55 35.25 7.65 34.8L13.5 36.6V37.5C13.5 44.2 15.825 49.875 20.475 54.525C25.125 59.175 30.8 61.5 37.5 61.5C44.2 61.5 49.875 59.175 54.525 54.525C59.175 49.875 61.5 44.2 61.5 37.5C61.5 30.8 59.175 25.125 54.525 20.475C49.875 15.825 44.2 13.5 37.5 13.5H36.6L34.8 7.65ZM11.925 6L24.75 18.825L28.5 7.5L37.5 37.5L7.5 28.5L18.825 24.75L6 11.925L11.925 6Z" fill="url(#paint0_linear_76_244)"/>
<defs>
<linearGradient id="paint0_linear_76_244" x1="36.7744" y1="67.5" x2="36.7744" y2="8.91595" gradientUnits="userSpaceOnUse">
<stop stop-color="#7F36B3"/>
<stop offset="1" stop-color="#6B18A7"/>
<stop offset="1" stop-color="#36174C"/>
</linearGradient>
</defs>
</svg>
