<svg width="60" height="60" viewBox="0 0 60 60" fill="none" xmlns="http://www.w3.org/2000/svg">
<path d="M32.5 35H37.5V27.5H45V22.5H37.5V15H32.5V22.5H25V27.5H32.5V35ZM20 45C18.625 45 17.4479 44.5104 16.4688 43.5312C15.4896 42.5521 15 41.375 15 40V10C15 8.625 15.4896 7.44792 16.4688 6.46875C17.4479 5.48958 18.625 5 20 5H50C51.375 5 52.5521 5.48958 53.5312 6.46875C54.5104 7.44792 55 8.625 55 10V40C55 41.375 54.5104 42.5521 53.5312 43.5312C52.5521 44.5104 51.375 45 50 45H20ZM10 55C8.625 55 7.44792 54.5104 6.46875 53.5312C5.48958 52.5521 5 51.375 5 50V15H10V50H45V55H10Z" fill="url(#paint0_linear_90_174)"/>
<defs>
<linearGradient id="paint0_linear_90_174" x1="29.9802" y1="5" x2="29.9802" y2="52.6293" gradientUnits="userSpaceOnUse">
<stop stop-color="#7F36B3"/>
<stop offset="1" stop-color="#6B18A7"/>
<stop offset="1" stop-color="#36174C"/>
</linearGradient>
</defs>
</svg>
