<svg width="56" height="50" viewBox="0 0 56 50" fill="none" xmlns="http://www.w3.org/2000/svg">
<path d="M27.75 50L39.125 20H44.375L55.75 50H50.5L47.8125 42.375H35.6875L33 50H27.75ZM8 42.5L4.5 39L17.125 26.375C15.6667 24.9167 14.3438 23.25 13.1562 21.375C11.9688 19.5 10.875 17.375 9.875 15H15.125C15.9583 16.625 16.7917 18.0417 17.625 19.25C18.4583 20.4583 19.4583 21.6667 20.625 22.875C22 21.5 23.4271 19.5729 24.9062 17.0938C26.3854 14.6146 27.5 12.25 28.25 10H0.5V5H18V0H23V5H40.5V10H33.25C32.375 13 31.0625 16.0833 29.3125 19.25C27.5625 22.4167 25.8333 24.8333 24.125 26.5L30.125 32.625L28.25 37.75L20.625 29.9375L8 42.5ZM37.25 38H46.25L41.75 25.25L37.25 38Z" fill="url(#paint0_linear_92_374)"/>
<defs>
<linearGradient id="paint0_linear_92_374" x1="28.1031" y1="1.45493e-06" x2="28.1031" y2="47.6293" gradientUnits="userSpaceOnUse">
<stop stop-color="#7F36B3"/>
<stop offset="1" stop-color="#6B18A7"/>
<stop offset="1" stop-color="#36174C"/>
</linearGradient>
</defs>
</svg>
