<svg width="40" height="40" viewBox="0 0 40 40" fill="none" xmlns="http://www.w3.org/2000/svg">
<path d="M20 36.6668C17.7222 36.6668 15.5694 36.2293 13.5417 35.3543C11.5139 34.4793 9.74305 33.2849 8.22916 31.771C6.71527 30.2571 5.52083 28.4863 4.64583 26.4585C3.77083 24.4307 3.33333 22.2779 3.33333 20.0002C3.33333 17.6946 3.77083 15.5349 4.64583 13.521C5.52083 11.5071 6.71527 9.74322 8.22916 8.22933C9.74305 6.71544 11.5139 5.521 13.5417 4.646C15.5694 3.771 17.7222 3.3335 20 3.3335C22.3055 3.3335 24.4653 3.771 26.4792 4.646C28.493 5.521 30.2569 6.71544 31.7708 8.22933C33.2847 9.74322 34.4792 11.5071 35.3542 13.521C36.2292 15.5349 36.6667 17.6946 36.6667 20.0002C36.6667 22.2779 36.2292 24.4307 35.3542 26.4585C34.4792 28.4863 33.2847 30.2571 31.7708 31.771C30.2569 33.2849 28.493 34.4793 26.4792 35.3543C24.4653 36.2293 22.3055 36.6668 20 36.6668ZM20 33.2502C20.7222 32.2502 21.3472 31.2085 21.875 30.1252C22.4028 29.0418 22.8333 27.889 23.1667 26.6668H16.8333C17.1667 27.889 17.5972 29.0418 18.125 30.1252C18.6528 31.2085 19.2778 32.2502 20 33.2502ZM15.6667 32.5835C15.1667 31.6668 14.7292 30.7154 14.3542 29.7293C13.9792 28.7432 13.6667 27.7224 13.4167 26.6668H8.49999C9.30555 28.0557 10.3125 29.264 11.5208 30.2918C12.7292 31.3196 14.1111 32.0835 15.6667 32.5835ZM24.3333 32.5835C25.8889 32.0835 27.2708 31.3196 28.4792 30.2918C29.6875 29.264 30.6944 28.0557 31.5 26.6668H26.5833C26.3333 27.7224 26.0208 28.7432 25.6458 29.7293C25.2708 30.7154 24.8333 31.6668 24.3333 32.5835ZM7.08333 23.3335H12.75C12.6667 22.7779 12.6042 22.2293 12.5625 21.6877C12.5208 21.146 12.5 20.5835 12.5 20.0002C12.5 19.4168 12.5208 18.8543 12.5625 18.3127C12.6042 17.771 12.6667 17.2224 12.75 16.6668H7.08333C6.94444 17.2224 6.84027 17.771 6.77083 18.3127C6.70138 18.8543 6.66666 19.4168 6.66666 20.0002C6.66666 20.5835 6.70138 21.146 6.77083 21.6877C6.84027 22.2293 6.94444 22.7779 7.08333 23.3335ZM16.0833 23.3335H23.9167C24 22.7779 24.0625 22.2293 24.1042 21.6877C24.1458 21.146 24.1667 20.5835 24.1667 20.0002C24.1667 19.4168 24.1458 18.8543 24.1042 18.3127C24.0625 17.771 24 17.2224 23.9167 16.6668H16.0833C16 17.2224 15.9375 17.771 15.8958 18.3127C15.8542 18.8543 15.8333 19.4168 15.8333 20.0002C15.8333 20.5835 15.8542 21.146 15.8958 21.6877C15.9375 22.2293 16 22.7779 16.0833 23.3335ZM27.25 23.3335H32.9167C33.0555 22.7779 33.1597 22.2293 33.2292 21.6877C33.2986 21.146 33.3333 20.5835 33.3333 20.0002C33.3333 19.4168 33.2986 18.8543 33.2292 18.3127C33.1597 17.771 33.0555 17.2224 32.9167 16.6668H27.25C27.3333 17.2224 27.3958 17.771 27.4375 18.3127C27.4792 18.8543 27.5 19.4168 27.5 20.0002C27.5 20.5835 27.4792 21.146 27.4375 21.6877C27.3958 22.2293 27.3333 22.7779 27.25 23.3335ZM26.5833 13.3335H31.5C30.6944 11.9446 29.6875 10.7363 28.4792 9.7085C27.2708 8.68072 25.8889 7.91683 24.3333 7.41683C24.8333 8.3335 25.2708 9.28488 25.6458 10.271C26.0208 11.2571 26.3333 12.2779 26.5833 13.3335ZM16.8333 13.3335H23.1667C22.8333 12.1113 22.4028 10.9585 21.875 9.87516C21.3472 8.79183 20.7222 7.75016 20 6.75016C19.2778 7.75016 18.6528 8.79183 18.125 9.87516C17.5972 10.9585 17.1667 12.1113 16.8333 13.3335ZM8.49999 13.3335H13.4167C13.6667 12.2779 13.9792 11.2571 14.3542 10.271C14.7292 9.28488 15.1667 8.3335 15.6667 7.41683C14.1111 7.91683 12.7292 8.68072 11.5208 9.7085C10.3125 10.7363 9.30555 11.9446 8.49999 13.3335Z" fill="url(#paint0_linear_86_54)"/>
<defs>
<linearGradient id="paint0_linear_86_54" x1="19.9868" y1="3.3335" x2="19.9868" y2="35.0864" gradientUnits="userSpaceOnUse">
<stop stop-color="#7F36B3"/>
<stop offset="1" stop-color="#6B18A7"/>
<stop offset="1" stop-color="#36174C"/>
</linearGradient>
</defs>
</svg>
