<svg width="88" height="15" viewBox="0 0 88 15" fill="none" xmlns="http://www.w3.org/2000/svg">
<path d="M86.7714 1.59117C86.8601 1.59117 86.9488 1.59117 86.9994 1.47582C87.0121 1.42638 87.0248 1.37694 87.0248 1.3275C87.0251 1.28082 87.0159 1.23486 86.9981 1.19433C86.9803 1.15379 86.9545 1.12013 86.9234 1.09679C86.8601 1.06383 86.7968 1.06383 86.6575 1.06383H86.5941V1.57469H86.7714V1.59117ZM86.6575 0.783685C86.8474 0.783685 86.9361 0.783684 87.0121 0.833122C87.2654 0.931998 87.2907 1.22863 87.2907 1.3275C87.2907 1.34398 87.2907 1.4099 87.2781 1.47582C87.2654 1.54173 87.2401 1.67357 87.1008 1.78892C87.0754 1.8054 87.0754 1.8054 87.0374 1.82188L87.3541 2.57993H87.0501L86.7714 1.8878H86.5941V2.57993H86.3155V0.783685H86.6575ZM86.7714 3.3215C87.0973 3.3215 87.4098 3.15309 87.6402 2.85331C87.8706 2.55354 88 2.14695 88 1.72301C88 1.29906 87.8706 0.892475 87.6402 0.592699C87.4098 0.292923 87.0973 0.124511 86.7714 0.124511C86.1002 0.124511 85.5556 0.833122 85.5556 1.72301C85.5556 2.59641 86.1002 3.3215 86.7714 3.3215ZM85.8089 1.72301C85.8089 1.03087 86.2395 0.454097 86.7714 0.454097C87.3161 0.454097 87.7467 1.03087 87.7467 1.72301C87.7467 2.39866 87.3034 2.97543 86.7714 2.97543C86.2522 2.97543 85.8089 2.39866 85.8089 1.72301ZM77.2723 11.8907C75.6511 11.8907 74.2959 10.4735 73.878 8.54545H82.8451L84.0864 6.04059H73.8653C74.0727 5.07584 74.5164 4.22551 75.129 3.61875C75.7416 3.012 76.4897 2.68197 77.2597 2.67881H83.4404L84.669 0.173949H77.1203C74.0933 0.173949 71.6488 3.35446 71.6488 7.27654C71.6488 11.1986 74.0933 14.3791 77.1203 14.3791H83.6051L84.8336 11.8743H77.2597L77.2723 11.8907ZM51.574 14.3956C50.1262 14.3956 48.7377 13.6473 47.714 12.3153C46.6903 10.9833 46.1151 9.17674 46.1151 7.29302C46.1151 5.40929 46.6903 3.60272 47.714 2.27073C48.7377 0.938735 50.1262 0.190428 51.574 0.190428H59.1226L57.8814 2.69529H51.7006C50.7798 2.72737 49.905 3.22584 49.2624 4.08459C48.6199 4.94333 48.2603 6.0945 48.2603 7.29302C48.2603 8.49153 48.6199 9.64271 49.2624 10.5014C49.905 11.3602 50.7798 11.8587 51.7006 11.8907H59.2746L58.0334 14.3956H51.5487H51.574ZM11.6776 11.8907C13.6281 11.8907 15.224 9.83083 15.224 7.29302C15.224 4.7552 13.6408 2.69529 11.6776 2.69529H5.61082C4.69001 2.72737 3.81519 3.22584 3.17263 4.08459C2.53006 4.94333 2.1705 6.0945 2.1705 7.29302C2.1705 8.49153 2.53006 9.64271 3.17263 10.5014C3.81519 11.3602 4.69001 11.8587 5.61082 11.8907H11.6776ZM5.4715 14.3956C2.44444 14.3956 0 11.2151 0 7.29302C0 3.37094 2.44444 0.190428 5.4715 0.190428H11.8169C13.2647 0.190428 14.6532 0.938735 15.6769 2.27073C16.7006 3.60272 17.2758 5.40929 17.2758 7.29302C17.2758 9.17674 16.7006 10.9833 15.6769 12.3153C14.6532 13.6473 13.2647 14.3956 11.8169 14.3956H5.4715ZM27.5855 9.79788C29.6373 9.79788 31.2838 7.63908 31.2838 4.98591C31.2838 2.33274 29.6373 0.173949 27.5855 0.173949H18.3903V14.3956H20.4928V2.67881H27.4462C28.4088 2.67881 29.2067 3.717 29.2067 4.98591C29.2067 6.25482 28.4088 7.27654 27.4462 7.27654H21.5187L27.7755 14.3956H30.8279L26.6102 9.79788H27.5855ZM62.3397 11.8907V0.190428H60.2499V13.0443C60.2499 13.4068 60.3512 13.7364 60.5538 14.0001C60.7565 14.2473 61.0351 14.4121 61.3264 14.4121H70.9142L72.1554 11.9072H62.3523L62.3397 11.8907ZM36.6287 9.38589H42.2395L39.2758 3.17319L33.8296 14.4121H31.3598L37.9712 0.931997C38.2625 0.38818 38.7438 0.0585938 39.2758 0.0585938C39.7824 0.0585938 40.2637 0.371701 40.555 0.89904L47.1917 14.4121H44.7093L43.544 11.9072H37.8699L36.6287 9.40237V9.38589Z" fill="white"/>
</svg>
