<svg width="100" height="103" viewBox="0 0 100 103" fill="none" xmlns="http://www.w3.org/2000/svg">
<path d="M55.0302 29.5651L46.6371 32.3057L39.3352 35.5284L37.2924 36.0677C36.7721 36.5626 36.2266 37.0638 35.6366 37.5713C34.9895 38.1295 34.3868 38.6371 33.9236 39.005C33.4098 39.4111 32.6485 40.1723 32.2616 40.6544C31.6842 41.3776 31.2275 42.1452 31.0308 42.7353C30.6819 43.8011 30.8532 44.8795 31.5257 45.8756C32.3885 47.1443 34.1077 48.4385 36.1123 49.3203C37.1338 49.7708 38.853 50.3481 40.1471 50.6716C42.2977 51.2172 46.4594 51.8072 48.7495 51.8961C49.2126 51.9151 49.8343 51.9151 49.8596 51.8961C49.9105 51.8642 50.2657 51.1855 50.6782 50.3418C52.0865 47.4679 53.1015 44.7717 53.6534 42.4689C53.9833 41.0732 54.2434 39.2144 54.4146 37.0131C54.4591 36.3977 54.478 34.3359 54.44 33.638C54.3829 32.4962 54.2813 31.57 54.1229 30.6628C54.0975 30.5295 54.091 30.409 54.1038 30.4026C54.1291 30.3836 54.2052 30.3583 55.2393 30.06L55.03 29.5653V29.5651H55.0302V29.5651ZM53.1143 30.688C53.1904 30.688 53.3933 32.6356 53.4441 33.8664C53.4568 34.1265 53.4504 34.2978 53.4378 34.2978C53.3871 34.2978 52.3656 33.6952 51.6362 33.2384C51.0017 32.8387 49.7964 32.0393 49.6061 31.8871C49.5426 31.8427 49.5489 31.8364 50.0692 31.6587C50.9509 31.3605 53.0445 30.688 53.1143 30.688ZM48.8384 32.0964C48.8956 32.0964 49.0414 32.1788 49.3903 32.3946C50.6971 33.2129 52.4735 34.2026 53.2348 34.5326C53.4695 34.634 53.4948 34.5959 52.9556 34.9639C51.801 35.7506 50.3609 36.5245 48.5972 37.3048C48.2864 37.4444 48.0263 37.5522 48.02 37.5522C48.0074 37.5522 48.0453 37.3937 48.096 37.2033C48.5211 35.6236 48.7622 34.0249 48.775 32.7434C48.7813 32.109 48.7813 32.109 48.8384 32.0901C48.8257 32.0964 48.832 32.0964 48.8384 32.0964ZM47.9566 32.4326C47.9946 32.4706 47.9693 33.8917 47.9185 34.2787C47.8043 35.2049 47.6267 36.0677 47.335 37.0384C47.2651 37.273 47.2016 37.4698 47.1891 37.4824C47.1635 37.5141 46.2944 36.664 46.009 36.3341C45.5141 35.7632 45.1272 35.1922 44.8417 34.634C44.6958 34.3485 44.4675 33.7903 44.4864 33.7712C44.5879 33.7014 47.9312 32.4073 47.9566 32.4326ZM43.8076 34.063C43.8139 34.063 43.8202 34.063 43.8267 34.0693C43.8393 34.082 43.8838 34.1836 43.9219 34.2977C44.1248 34.8497 44.5815 35.6617 44.9749 36.1819C45.4063 36.7529 45.971 37.3619 46.4403 37.7615C46.5926 37.8884 46.7321 38.0089 46.7511 38.028C46.7893 38.0661 46.8019 38.0597 45.7678 38.453C44.5689 38.9098 43.262 39.3665 41.7648 39.8487C41.4071 39.964 41.0498 40.0803 40.6928 40.1976C40.6356 40.2167 40.6547 40.1849 40.8196 39.9249C41.5618 38.7639 42.691 36.4864 43.3255 34.875C43.4333 34.5959 43.5412 34.3168 43.5602 34.2533C43.5856 34.1645 43.6173 34.1328 43.6997 34.0883C43.7441 34.0758 43.7886 34.063 43.8076 34.063ZM42.5389 34.5895C42.5579 34.6023 42.2343 35.281 41.9171 35.9028C41.3017 37.1017 40.6293 38.2818 39.7285 39.7155C39.5762 39.9629 39.4304 40.1913 39.4113 40.2167C39.3796 40.2611 39.3668 40.2484 39.2654 40.0518C39.0497 39.6267 38.872 39.0811 38.7768 38.5799C38.6817 38.085 38.7007 37.2223 38.8086 36.6894C38.891 36.2961 38.8847 36.3025 39.075 36.2073C39.8871 35.795 42.5135 34.5642 42.5389 34.5895ZM53.4822 35.0337V35.3001C53.4822 36.7148 53.33 38.6561 53.1079 40.0708C53.0698 40.3182 53.038 40.5212 53.0317 40.5276C53.0317 40.5276 52.8478 40.4769 52.6321 40.4134C51.6805 40.1152 50.6464 39.6774 49.7138 39.1637C49.0984 38.8274 48.204 38.2754 48.2294 38.25C48.2356 38.2437 48.5021 38.1042 48.8129 37.9392C50.0565 37.2921 51.2491 36.5943 52.2831 35.9028C52.6701 35.6427 53.2537 35.224 53.3807 35.1098L53.4822 35.0337ZM37.7491 36.9114C37.7745 36.9114 37.7681 36.9621 37.7301 37.1905C37.7047 37.3555 37.673 37.66 37.6604 37.8693C37.6095 38.7956 37.7619 39.4808 38.2186 40.4196C38.3455 40.6797 38.4471 40.8954 38.4406 40.9017C38.3962 40.9398 34.1966 42.1706 32.8769 42.5322C32.4836 42.64 32.1411 42.7352 32.1156 42.7415C32.0713 42.7542 32.0649 42.7479 32.0839 42.6399C32.2298 41.7075 32.9404 40.4894 33.93 39.4616C34.5898 38.7765 35.1164 38.3769 36.0172 37.8629C36.6643 37.495 37.6603 36.9432 37.7364 36.9177C37.7365 36.9114 37.7428 36.9114 37.7491 36.9114ZM47.6458 38.6814C47.6521 38.6751 47.8043 38.7576 47.9883 38.8654C49.3459 39.6521 51.2364 40.3816 52.8477 40.7559L52.9937 40.7877L52.7906 40.9017C51.9469 41.3712 49.1746 42.5258 46.3389 43.5853C45.9265 43.7375 45.5205 43.8898 45.4443 43.9215C45.3681 43.9532 45.2983 43.9723 45.2983 43.9659C45.2983 43.9595 45.4126 43.7375 45.5584 43.4647C46.3514 41.9803 47.1508 40.1722 47.5568 38.9161C47.6077 38.7956 47.6393 38.6878 47.6458 38.6814ZM46.6371 39.0113C46.6435 39.0178 46.5927 39.1509 46.5292 39.3031C45.9773 40.6417 45.254 42.1009 44.3278 43.7376C44.0931 44.1563 43.8964 44.4926 43.89 44.4926C43.8838 44.4926 43.6934 44.3783 43.465 44.2388C42.12 43.414 40.9274 42.399 40.1472 41.4157L40.0329 41.2761L40.6102 41.1175C42.6783 40.553 44.4355 39.9439 46.1802 39.1954C46.4277 39.0938 46.6307 39.0113 46.6371 39.0113ZM52.9049 41.2C52.9112 41.3459 52.5877 42.6528 52.3212 43.5979C52.0992 44.3909 51.9088 45.0127 51.5599 46.1101C51.4077 46.5924 51.2746 46.992 51.2681 46.992C51.2618 46.992 51.2237 46.9856 51.1857 46.973C49.3016 46.6303 47.614 46.1546 46.028 45.5202C45.5839 45.3425 44.9495 45.057 44.9115 45.0254C44.8988 45.0125 45.2795 44.835 45.7616 44.6257C48.6481 43.3632 51.6425 41.9294 52.6701 41.3142C52.7906 41.238 52.8858 41.2 52.9049 41.2ZM38.4343 41.6948C38.447 41.7075 37.6413 42.8685 36.512 44.4481C36.1187 45 35.662 45.6471 35.4907 45.8882C35.3194 46.1292 35.0593 46.5099 34.9134 46.7383L34.6468 47.1507L34.3613 46.9096C34.0251 46.6304 33.4415 46.0341 33.1814 45.7042C32.6358 45.0255 32.2679 44.3086 32.122 43.6552C32.0522 43.3507 32.0522 43.1983 32.1156 43.1794C32.2107 43.154 33.9046 42.7543 35.4907 42.3863C36.3725 42.1834 37.3938 41.9423 37.7617 41.8535C38.1297 41.7645 38.428 41.6948 38.4343 41.6948ZM39.2463 42.0057L39.4492 42.2341C40.3629 43.2555 41.2954 44.0105 42.4246 44.6701C42.6277 44.7844 42.7799 44.8858 42.7672 44.8923C42.7229 44.924 38.8466 46.3005 37.0513 46.9222C36.0426 47.2775 35.2115 47.5629 35.2053 47.5629C35.1989 47.5629 35.1418 47.5249 35.0783 47.4805L34.9641 47.398L35.1481 47.1316C35.7444 46.2688 36.4931 45.3236 38.1235 43.357L39.2463 42.0057ZM44.3089 45.6281C44.3151 45.6218 44.5942 45.7232 44.9368 45.8502C45.7616 46.161 46.4149 46.3576 47.2905 46.5797C48.369 46.8525 49.9296 47.119 50.8495 47.1951C50.9891 47.2077 51.0652 47.2205 51.0398 47.2395C50.9953 47.2649 50.0628 47.5758 49.3777 47.7915C48.2864 48.134 44.9559 49.1173 42.2407 49.8976C41.7395 50.0435 41.3081 50.1641 41.2827 50.1704C41.2194 50.1831 41.0099 50.1259 41.0099 50.1006C41.0099 50.088 41.1622 49.8913 41.3462 49.6756C42.2596 48.5844 43.1669 47.3664 43.9219 46.2118C44.1311 45.8945 44.3089 45.6344 44.3089 45.6281ZM43.1922 45.6599C43.1985 45.6662 42.7482 46.3893 41.9616 47.6327C41.6253 48.1593 41.251 48.7556 41.1177 48.965C40.9909 49.168 40.8006 49.4853 40.6927 49.6628L40.5087 49.9864L40.4136 49.961C40.1852 49.8976 38.5802 49.3329 38.1551 49.1616C37.6285 48.9523 37.083 48.6986 36.6769 48.4829C36.1695 48.2101 35.5351 47.804 35.5858 47.7914C35.5985 47.7851 36.4676 47.5502 37.5143 47.2648C40.293 46.5098 41.8346 46.0721 42.8433 45.755C43.0273 45.6979 43.1859 45.6534 43.1922 45.6599ZM51.0905 47.5122H51.0968C51.1222 47.5757 50.0946 50.4305 49.7201 51.3313C49.6377 51.5343 49.6061 51.5851 49.5616 51.5787C49.4538 51.5724 47.963 51.363 47.0557 51.2298C45.4761 50.9887 42.8243 50.5255 42.1582 50.3734L42.006 50.3417L42.9511 50.1258C44.9813 49.6691 45.9582 49.4217 46.9478 49.1172C48.1976 48.7366 49.4348 48.2608 50.6845 47.6772C50.8811 47.5883 51.0461 47.5185 51.0905 47.5122Z" fill="url(#paint0_linear_115_41)"/>
<path d="M46.377 10.0002C46.2374 9.98128 43.9852 10.7933 42.5325 11.3832C40.5722 12.1826 39.0497 12.944 38.1107 13.6036C37.7619 13.8511 37.3241 14.2888 37.2544 14.46C37.229 14.5235 37.2163 14.5996 37.2163 14.6757L38.0664 15.4814L40.0901 16.1285L44.9052 16.9913L50.4117 17.9366L50.4688 17.4608C50.4498 17.4608 50.4371 17.4545 50.4182 17.4545L49.6948 17.3402L49.549 17.0802C48.8004 15.7606 47.9757 14.1238 47.4936 13.02C47.1193 12.1635 46.764 11.174 46.5673 10.4634C46.4594 10.032 46.4468 10.0066 46.3771 10.0003V10.0002H46.377V10.0002ZM46.2754 10.3238H46.2819C46.2881 10.3301 46.3135 10.5079 46.3389 10.7171C46.4467 11.6054 46.6435 12.4617 46.9543 13.3879C47.189 14.0858 47.189 14.0478 46.9162 13.9652C46.2691 13.7877 43.37 13.2865 41.2701 12.9947C40.9339 12.9502 40.6484 12.9058 40.6484 12.8995C40.623 12.8742 42.1645 12.0684 42.8434 11.7513C43.7125 11.3515 46.0978 10.3555 46.2754 10.3238ZM40.1598 13.1659L40.4073 13.2483C41.7521 13.7051 45.1334 14.3522 46.9986 14.5045C47.2079 14.5235 47.3856 14.5426 47.3919 14.5426C47.3982 14.5489 47.2207 14.6441 46.9922 14.7519C46.0915 15.2023 45.1018 15.7543 44.4166 16.1793C44.2137 16.3062 44.0296 16.4077 44.0043 16.4077C43.9789 16.4077 43.8457 16.3823 43.7062 16.3633L43.4524 16.3252L42.8181 15.7034C41.7015 14.6187 40.826 13.7813 40.4898 13.464L40.1598 13.1659ZM39.9061 13.3625L40.8006 14.4791C41.289 15.0945 41.7839 15.6971 41.8918 15.8303C41.9996 15.9636 42.0884 16.0715 42.0821 16.0778C42.0567 16.0968 40.788 15.8494 40.1155 15.6972C39.424 15.5385 39.1385 15.4624 38.7135 15.3293L38.3645 15.215V15.1261C38.3708 14.7011 38.9102 14.0667 39.8237 13.4197L39.9061 13.3625ZM47.5062 14.8851C47.5316 14.8851 47.5632 14.9422 47.6393 15.1135C47.855 15.5892 48.5276 16.8708 48.6924 17.1182C48.7433 17.2007 48.832 17.207 47.9376 17.0611C45.787 16.7121 45.0955 16.5981 45.0955 16.5854C45.0955 16.579 45.1589 16.5346 45.2414 16.4902C45.9075 16.1223 46.5799 15.6528 47.1763 15.1516C47.3223 15.031 47.4555 14.9169 47.4808 14.8978C47.4871 14.8851 47.4999 14.8788 47.5062 14.8851Z" fill="url(#paint1_linear_115_41)"/>
<path d="M37.2986 14.3712C37.2986 14.3712 37.1592 14.5933 37.2924 14.9232C37.3749 15.1262 37.6159 15.3736 37.8887 15.6274C37.8887 15.6274 40.7117 18.3806 41.0543 18.774C42.6149 20.5757 43.2937 22.352 43.3572 24.8008C43.3952 26.3741 43.097 27.7571 42.3548 29.3621C41.0353 32.2423 38.2502 35.4207 33.9554 38.9479L34.5835 38.7386C34.9895 38.434 35.5414 38.1106 36.8356 37.4C39.8235 35.7631 43.1859 34.2596 47.3095 32.7117C53.2473 30.4786 63.0108 27.8648 68.568 27.0148L69.1454 26.926L69.0565 26.7864C68.5491 25.9997 68.2001 25.5113 67.7813 24.9911C66.5634 23.4812 65.0853 22.2568 63.2772 21.2418C60.7904 19.8525 57.5739 18.7677 53.5011 17.962C52.7335 17.8097 51.046 17.5179 49.6757 17.3085C46.7702 16.8582 44.8923 16.5473 42.8243 16.192C42.0821 16.0651 40.9718 15.8748 40.2359 15.7163C39.8552 15.6337 39.1258 15.4625 38.5548 15.2658C38.098 15.0881 37.4382 14.9105 37.2986 14.3712ZM38.9355 15.9573C38.9417 15.951 39.0432 15.989 39.1765 16.0334C39.4176 16.1158 39.7284 16.211 40.0965 16.3125C40.3749 16.3891 40.6541 16.4631 40.9339 16.5346C41.3145 16.6297 41.6316 16.7185 41.638 16.7185C41.6825 16.7629 42.3232 18.8119 42.5389 19.5986C42.6213 19.8968 42.6848 20.1505 42.6785 20.1505C42.672 20.157 42.6023 20.049 42.5198 19.9031C41.7776 18.5963 40.6039 17.2704 39.2463 16.2046C39.0687 16.0778 38.9355 15.9636 38.9355 15.9573ZM42.0567 16.8201C42.0884 16.8201 42.228 16.8391 42.3992 16.8771C43.4777 17.1182 45.4127 17.4861 46.6497 17.6955C46.8591 17.7272 47.0241 17.7653 47.0241 17.778C47.0241 17.7907 46.9479 17.835 46.8527 17.8858C46.6434 17.9937 45.7996 18.4948 45.5205 18.6851C44.8163 19.1546 44.182 19.6621 43.7252 20.1188C43.5412 20.3029 43.3825 20.4551 43.3825 20.4551C43.3825 20.4551 43.3446 20.3473 43.3127 20.214C43.0845 19.3322 42.6086 18.0253 42.1772 17.1055C42.1074 16.9596 42.0503 16.8263 42.0503 16.8137C42.0503 16.8264 42.0503 16.8201 42.0567 16.8201ZM47.5506 17.8668C47.5886 17.8794 47.6521 18.0952 47.7789 18.5709C48.0137 19.4909 48.1215 20.5186 48.0835 21.4765C48.0707 21.743 48.0581 21.9903 48.0453 22.0221L48.0263 22.0855L47.6965 21.9777C47.0177 21.762 45.9139 21.4384 44.9686 21.172C44.4293 21.0261 43.9917 20.8929 43.9917 20.8802C43.9917 20.8421 44.7784 20.0554 45.1146 19.7573C45.7552 19.1926 47.4934 17.8477 47.5506 17.8668ZM47.9883 17.9302C48.0074 17.9112 50.6147 18.3616 51.8011 18.59C52.6829 18.7612 53.9644 19.0277 54.0405 19.0595C54.0785 19.0721 53.9453 19.1482 53.5202 19.3385C51.8454 20.0935 50.6019 20.7722 49.365 21.597C49.0414 21.8127 48.7686 21.9903 48.7623 21.9903C48.756 21.9903 48.7496 21.8064 48.7496 21.5843C48.7496 20.379 48.5085 19.161 48.0644 18.1333C48.02 18.0317 47.9819 17.9366 47.9883 17.9302ZM54.7319 19.2625C54.751 19.2815 54.6685 19.7954 54.5923 20.0999C54.364 21.0451 53.7486 22.4472 52.9938 23.7667C52.8604 24.0014 52.7399 24.1918 52.7272 24.1981C52.7146 24.2044 52.5433 24.1092 52.3466 23.995C51.6107 23.5636 50.7733 23.1577 49.8598 22.777C49.6061 22.6692 49.384 22.5803 49.3776 22.5677C49.3331 22.5296 51.376 21.1783 52.4545 20.5312C53.3109 20.0111 54.7065 19.2371 54.7319 19.2625ZM55.214 19.3386C55.2712 19.3386 56.4258 19.6558 57.0284 19.8334C58.5193 20.2775 60.2321 20.9056 61.3486 21.4131L61.8117 21.6225L61.4882 21.6986C58.7604 22.3266 56.4258 23.0499 54.1736 23.9634C53.9896 24.0395 53.8247 24.103 53.8121 24.103C53.7994 24.103 53.8628 23.9571 53.9453 23.7794C54.6241 22.3393 55.0618 20.8358 55.1696 19.5542C55.1761 19.4337 55.195 19.3386 55.214 19.3386ZM43.7188 21.9777C43.7378 21.9586 44.6197 22.168 45.0955 22.3011C45.8187 22.5042 47.3538 23.018 47.3538 23.0561C47.3538 23.0625 47.1826 23.2084 46.9797 23.3861C46.1486 24.0776 45.3492 24.807 44.3912 25.7333C44.1057 26.0062 43.8647 26.2282 43.8521 26.2282C43.8393 26.2282 43.8331 26.19 43.8393 26.1393C43.9852 25.0735 43.9536 23.7032 43.7506 22.3139C43.7315 22.1362 43.7125 21.984 43.7188 21.9777ZM62.2496 21.9968C62.2621 22.0094 61.8435 22.6692 61.5771 23.0434C61.1965 23.589 60.6381 24.3123 59.3756 25.8983C58.7096 26.7356 57.9609 27.6809 57.7136 27.9981C57.4597 28.3153 57.2505 28.5817 57.2441 28.5817C57.2377 28.5817 57.1554 28.4676 57.0665 28.328C56.3559 27.2622 55.5058 26.3296 54.4971 25.4922C54.3068 25.3336 54.0976 25.1623 54.0278 25.1116C53.958 25.0608 53.9008 25.0101 53.9008 25.0038C53.9008 24.9848 54.9792 24.5216 55.7977 24.1917C57.2315 23.6081 59.1852 22.9102 60.6508 22.4598C61.4184 22.2188 62.2368 21.984 62.2496 21.9968ZM62.738 22.1236C62.7633 22.1173 62.9156 22.1934 63.0996 22.3011C64.6413 23.183 66.151 24.3186 67.3438 25.4859C67.68 25.8158 68.511 26.6786 68.4983 26.6849C68.4983 26.6849 68.2065 26.7103 67.864 26.7356C65.1931 26.9387 61.7738 27.5032 58.4876 28.2962C58.2656 28.3469 58.0689 28.3913 58.0562 28.3913C58.0436 28.3913 58.291 28.144 58.6019 27.8458C60.5304 25.9871 61.4123 24.8134 62.4526 22.7199C62.5984 22.4091 62.7254 22.1426 62.738 22.1236C62.7317 22.1236 62.7317 22.1236 62.738 22.1236ZM48.61 23.5701C48.6988 23.589 49.5236 23.9761 50.1452 24.2869C50.7162 24.5723 51.5727 25.0291 51.6171 25.0672C51.6234 25.0735 51.3188 25.2321 50.9447 25.4161C49.7519 26.0124 48.7306 26.577 47.6647 27.2241C47.3603 27.4081 47.1065 27.5604 47.1002 27.5604C47.0748 27.5604 47.0811 27.5349 47.2524 27.2241C47.8234 26.1838 48.2801 24.9403 48.5403 23.7286C48.5656 23.6334 48.591 23.5701 48.61 23.5701ZM47.7852 23.7223C47.8043 23.7413 47.5886 24.5216 47.4554 24.9467C47.1953 25.7523 46.7576 26.761 46.3326 27.5223C46.2309 27.6998 46.0787 27.96 45.9963 28.1059L45.8377 28.3596L45.4824 28.0171C45.0701 27.6174 44.7338 27.37 44.3025 27.1479C44.1311 27.0592 43.9979 26.983 43.9979 26.9704C43.9979 26.9196 45.0828 25.9363 45.9138 25.2258C46.5101 24.7119 47.7662 23.7032 47.7852 23.7223ZM52.8288 25.7968L53.1397 25.9997C53.8501 26.4629 54.6874 27.0782 55.3283 27.6174C55.6898 27.9155 56.3876 28.5437 56.5273 28.6959L56.6033 28.7785L56.0896 28.9244C53.184 29.73 50.9383 30.4468 48.3182 31.4112C48.0263 31.519 47.7789 31.6078 47.7598 31.6078C47.7219 31.6078 47.6901 31.6395 48.3436 31.0368C50.0184 29.4953 51.5028 27.795 52.6067 26.1393L52.8288 25.7968ZM51.5029 26.1267C51.5155 26.1393 50.6464 27.3637 50.1262 28.0552C49.5045 28.8799 48.4006 30.2629 47.6393 31.1636C47.3222 31.538 47.0495 31.8488 47.0367 31.8552C47.0177 31.8615 47.0113 31.7664 47.0113 31.6205C47.0113 30.8528 46.8147 30.0344 46.4721 29.3366C46.3262 29.0448 46.3008 28.975 46.3326 28.9433C46.4531 28.8354 48.2992 27.7823 49.4664 27.1543C50.2531 26.7357 51.4837 26.114 51.5029 26.1267ZM43.484 28.0933C43.5031 28.0933 43.649 28.1694 43.814 28.2582C44.22 28.4802 44.5816 28.7276 44.9051 28.9942C44.9178 29.0068 44.7529 29.1401 44.5372 29.2986C43.9345 29.73 43.021 30.4215 42.4882 30.8466C41.9298 31.2907 41.9109 31.3033 41.9742 31.2082C42.393 30.5674 42.6022 30.2058 42.8244 29.7427C43.021 29.3304 43.2176 28.8419 43.3572 28.4168C43.4079 28.2329 43.4714 28.0933 43.484 28.0933ZM45.622 29.7681C45.6537 29.7618 45.6918 29.8188 45.863 30.0726C46.2247 30.6118 46.5038 31.3351 46.5737 31.9187L46.5862 32.0456L45.7172 32.3819C44.1629 32.9845 42.7292 33.5809 41.7585 34.0249C41.4857 34.1518 41.0099 34.3801 40.6991 34.5325C40.3882 34.691 40.1345 34.8116 40.1345 34.8052C40.1345 34.7989 40.3311 34.653 40.5722 34.4753C42.4691 33.0987 44.1122 31.5888 45.3429 30.079C45.4761 29.9203 45.5967 29.7744 45.6093 29.7681L45.622 29.7681ZM44.6387 30.0092C44.6641 30.0345 43.9409 30.8529 43.4461 31.354C42.2217 32.6039 41.01 33.5809 39.5064 34.5325C39.3161 34.653 39.1449 34.7608 39.1258 34.7736C39.0814 34.7989 39.1384 34.7354 39.7982 34.0186C40.217 33.5681 40.5341 33.1875 40.8957 32.7181C41.1368 32.4073 41.1812 32.3629 41.5302 32.1153C42.4628 31.4429 44.6133 29.9837 44.6387 30.0092Z" fill="url(#paint2_radial_115_41)"/>
<path d="M25.663 57.6063C25.546 57.6063 25.4289 57.6175 25.313 57.6175C22.9492 57.7434 21.355 58.7837 20.4228 60.8152C19.6256 62.6524 19.7127 65.054 20.4318 66.9026C21.268 68.7088 22.6193 69.662 24.8748 70.0221C25.352 70.1002 25.672 70.3622 26.5962 71.4414L27.7335 72.7738H29.7961L28.4246 71.3912C27.6665 70.6331 27.0533 69.973 27.0533 69.915C27.0533 69.857 27.3433 69.73 27.6943 69.623C28.8517 69.2727 29.8128 68.3786 30.485 67.0084C31.0292 65.908 31.1072 65.5679 31.1852 64.1988C31.3893 60.1237 29.2408 57.576 25.6629 57.6051L25.663 57.6063ZM27.4714 68.2629C26.468 68.7489 25.0109 68.8459 24.0598 68.497C23.0764 68.1358 22.1243 67.1145 21.696 65.9583C21.22 64.694 21.288 62.3616 21.8321 61.3112C22.7073 59.6388 23.8647 58.8696 25.556 58.8696C28.0646 58.8696 29.4917 60.406 29.6779 63.2936C29.8251 65.7041 29.0178 67.5125 27.4725 68.2618L27.4714 68.2629ZM63.1025 61.0871C62.2373 61.0871 61.575 61.4373 61.129 62.1273L60.7789 62.6737V61.2532H59.2816V69.7713H60.7779V67.0487C60.7779 64.559 60.809 64.268 61.1569 63.5867C61.6364 62.6524 62.4613 62.1865 63.2586 62.4095L63.7938 62.5656V61.0894H63.1025V61.0871ZM54.3057 61.009C54.0124 61.009 53.7013 61.0481 53.3915 61.1162C51.3879 61.6401 50.2584 63.5578 50.3275 65.5312C50.3275 67.1836 50.6486 68.0097 51.4459 68.8761C53.0793 70.2162 54.5565 70.3232 56.55 69.6041C56.8901 69.4592 57.2602 69.292 57.2602 69.292V67.9519L56.55 68.3198C54.9367 69.0221 53.7214 69.0221 52.748 68.1948C52.1271 67.5627 51.8539 66.8045 51.728 65.9394H57.7653V64.7909C57.7653 62.4496 56.356 60.9711 54.3045 61.009H54.3057ZM51.8639 64.7441C51.8639 64.7441 52.087 63.2836 52.9142 62.7105C53.3124 62.4294 53.7694 62.2935 54.2164 62.2935C54.6647 62.2935 55.1118 62.4384 55.4808 62.7206C56.2391 63.3036 56.3661 64.733 56.3661 64.733H51.864V64.7441H51.8639ZM15.7657 63.2078C14.1424 62.2244 13.4222 61.5152 13.5102 60.679C13.7622 58.3655 16.6209 58.6855 18.2041 59.5608L18.2153 58.0044C18.2153 58.0044 17.3401 57.6253 16.0857 57.6052C14.1613 57.5762 12.9171 58.2072 12.334 59.4917C11.4777 61.387 12.2359 62.8163 14.9765 64.4108C16.5151 65.306 17.1951 66.0832 17.1951 66.9305C17.1951 68.681 15.0846 69.292 12.9072 68.1937C12.459 67.9707 12.0799 67.7845 12.0599 67.7845C11.9818 68.2807 12.022 69.4681 12.022 69.4681C12.022 69.4681 12.691 69.7491 13.6944 69.9429C16.1828 70.4391 18.4473 69.2718 18.6613 67.3764C18.8476 65.597 18.2041 64.6637 15.7658 63.2065L15.7657 63.2078ZM76.3546 60.989C76.0624 60.989 75.7525 61.0291 75.4291 61.0972C73.4279 61.6212 72.3006 63.5389 72.3775 65.5124C72.3775 67.1625 72.6976 67.9808 73.4947 68.8459C75.1281 70.1873 76.6054 70.2954 78.609 69.5752C78.9479 69.4303 79.3169 69.2654 79.3169 69.2654V67.923L78.6079 68.293C76.9913 68.9932 75.7759 68.9932 74.806 68.166C74.1816 67.5349 73.9107 66.7857 73.7846 65.9104H79.812V64.762C79.812 62.4319 78.4026 60.9523 76.3512 60.9914L76.3546 60.989ZM73.9128 64.724C73.9128 64.724 74.1381 63.2657 74.9642 62.6814C75.3612 62.3994 75.8182 62.2633 76.2653 62.2633C76.7113 62.2633 77.1606 62.4083 77.5298 62.6915C78.2879 63.2746 78.4151 64.714 78.4151 64.714H73.9141L73.9128 64.724ZM46.4676 63.2267C44.8444 62.2456 44.1263 61.5342 44.2133 60.6979C44.4652 58.3833 47.324 58.7045 48.9071 59.5797L48.9183 58.0233C48.9183 58.0233 48.0431 57.6442 46.7887 57.6263C44.8644 57.5974 43.6201 58.2284 43.036 59.5128C42.1808 61.4081 42.949 62.8375 45.6806 64.4319C47.217 65.3262 47.8971 66.0932 47.8971 66.9405C47.8971 68.691 45.7876 69.312 43.6101 68.2037C43.1642 67.9807 42.7851 67.7967 42.7628 67.7967C42.6847 68.2928 42.725 69.4803 42.725 69.4803C42.725 69.4803 43.3861 69.7512 44.3862 69.9552C46.8769 70.4525 49.1425 69.2862 49.3555 67.3908C49.5406 65.6203 48.8983 64.6871 46.4677 63.2288V63.2267H46.4676ZM85.1525 61.0671C84.2873 61.0671 83.6173 61.4182 83.1791 62.1084L82.8289 62.6525V61.2343H81.3316V69.7502H82.8278V67.0276C82.8278 64.539 82.8579 64.2469 83.207 63.5668C83.6864 62.6336 84.5113 62.1665 85.3085 62.3905L85.8437 62.5466V61.0671L85.1525 61.0671ZM34.5602 63.1776V57.7523H33.0506V69.7691H39.3991V68.3499H34.5603V63.1776H34.5602ZM69.471 64.8689L68.2267 68.1067L67.0303 64.8511L65.815 61.2432H64.2698C65.2711 64.0819 66.3602 66.9695 67.4585 69.7691C67.9346 69.7802 68.4117 69.7691 68.8877 69.7691L70.568 65.5502L72.2795 61.2443H70.8022C70.8022 61.2443 70.1499 62.9546 69.4699 64.8701L69.471 64.8689ZM38.0388 54.4777C38.2818 54.4777 38.4847 54.3998 38.652 54.2325C38.8169 54.0674 38.9039 53.8735 38.9039 53.6304C38.9039 53.3873 38.8169 53.1844 38.652 53.0283C38.4847 52.8723 38.2918 52.7941 38.0499 52.7941C37.8047 52.7941 37.6017 52.8723 37.4367 53.0372C37.2695 53.2023 37.1936 53.4052 37.1936 53.6394C37.1936 53.8847 37.2717 54.0875 37.4367 54.2415C37.5928 54.3975 37.7957 54.4756 38.0388 54.4756V54.4777ZM37.5036 53.0953C37.6485 52.9504 37.8247 52.8834 38.0499 52.8834C38.2618 52.8834 38.438 52.9504 38.5852 53.0953C38.7301 53.2402 38.8082 53.4163 38.8082 53.6304C38.8082 53.8445 38.7301 54.0296 38.5852 54.1745C38.438 54.3193 38.2618 54.3885 38.0499 54.3885C37.8348 54.3885 37.6597 54.3216 37.5148 54.1745C37.3699 54.0296 37.2918 53.8445 37.2918 53.6304C37.2918 53.4163 37.3587 53.2403 37.5036 53.0953ZM37.8637 53.7085H37.9618C38.031 53.7085 38.099 53.7754 38.1569 53.9025L38.2741 54.1655H38.458L38.3131 53.8734C38.254 53.7564 38.1961 53.6884 38.128 53.6693C38.2139 53.6492 38.2818 53.6203 38.3309 53.5623C38.3799 53.5122 38.3978 53.4441 38.3978 53.3671C38.3978 53.278 38.3699 53.2112 38.3109 53.1621C38.244 53.1063 38.1369 53.0762 37.9986 53.0762H37.6888V54.1655H37.8448V53.7084L37.8637 53.7085ZM37.8637 53.2023H37.9998C38.0979 53.2023 38.167 53.2224 38.2049 53.2513C38.2417 53.2803 38.2518 53.3183 38.2518 53.3873C38.2518 53.5133 38.1736 53.5725 38.0288 53.5725H37.8616V53.2023H37.8637ZM12.9271 53.6115C12.9271 53.2324 12.9159 52.9504 12.907 52.7842H12.9159C12.9549 52.9803 13.0029 53.1265 13.0419 53.2234L14.4913 56.4612H14.7344L16.1837 53.1945C16.2228 53.1054 16.2619 52.9715 16.3098 52.7853H16.3209C16.2919 53.1087 16.2819 53.3896 16.2819 53.6137V56.4713H16.778V52.2234H16.1558L14.8236 55.1779C14.7745 55.295 14.7064 55.4701 14.6195 55.702H14.5993C14.5704 55.5871 14.5024 55.4121 14.4054 55.198L13.1031 52.2133H12.442V56.4611H12.9192V53.6136L12.9271 53.6115ZM17.8651 53.6194H18.2933V56.265H17.8651V53.6194ZM18.0792 52.6493C18.1684 52.6493 18.2442 52.6191 18.3022 52.5601C18.3613 52.5021 18.4004 52.4263 18.4004 52.3372C18.4004 52.2502 18.3713 52.1721 18.3033 52.1142C18.2431 52.0551 18.1662 52.0249 18.0781 52.0249C17.9912 52.0249 17.9132 52.0551 17.8551 52.1142C17.7962 52.1721 17.757 52.2502 17.757 52.3372C17.757 52.4342 17.7872 52.5021 17.8551 52.5601C17.9221 52.6191 17.9912 52.6493 18.0781 52.6493H18.0792ZM21.346 56.3231V55.857C21.1118 56.032 20.8599 56.1191 20.599 56.1191C20.2869 56.1191 20.0337 56.0121 19.8486 55.807C19.6647 55.6041 19.5666 55.3218 19.5666 54.9707C19.5666 54.6028 19.6647 54.3105 19.8676 54.0875C20.0627 53.8735 20.3158 53.7665 20.6258 53.7665C20.8789 53.7665 21.1218 53.8446 21.3461 54.0008V53.5046C21.1421 53.3976 20.9091 53.3485 20.6459 53.3485C20.1597 53.3485 19.7807 53.5046 19.4975 53.8058C19.2165 54.1067 19.0716 54.5159 19.0716 55.0099C19.0716 55.4491 19.1975 55.8182 19.4596 56.1003C19.7328 56.3901 20.0819 56.5373 20.5099 56.5373C20.8409 56.5282 21.1118 56.459 21.346 56.3231ZM22.5713 54.9126C22.5713 54.5636 22.6493 54.2816 22.7942 54.0875C22.9303 53.9125 23.0953 53.8245 23.2904 53.8245C23.4554 53.8245 23.5724 53.8545 23.6583 53.9226V53.4163C23.5914 53.3874 23.4944 53.3774 23.3684 53.3774C23.1934 53.3774 23.0374 53.4363 22.9002 53.5446C22.7553 53.6593 22.6393 53.8345 22.5713 54.0575H22.5602V53.4364H22.0752V56.469H22.5613V54.9126H22.5713ZM25.362 56.5292C25.8191 56.5292 26.187 56.382 26.4602 56.09C26.7321 55.8 26.8682 55.4099 26.8682 54.9236C26.8682 54.4277 26.7434 54.0485 26.4892 53.7663C26.2372 53.4844 25.887 53.3482 25.4299 53.3482C24.9727 53.3482 24.6048 53.4843 24.3317 53.7474C24.0396 54.0374 23.8857 54.4466 23.8857 54.9717C23.8857 55.4288 24.0106 55.808 24.2738 56.09C24.5458 56.382 24.9059 56.5281 25.362 56.5281V56.5292ZM24.6707 54.0586C24.8558 53.8634 25.0989 53.7664 25.3998 53.7664C25.7121 53.7664 25.9462 53.8634 26.1202 54.0586C26.2952 54.2626 26.3822 54.5537 26.3822 54.9427C26.3822 55.3128 26.3041 55.6038 26.1391 55.799C25.9741 56.003 25.7311 56.1111 25.4099 56.1111C25.0977 56.1111 24.8558 56.0029 24.6707 55.799C24.4868 55.5938 24.3987 55.3128 24.3987 54.9427C24.3797 54.5748 24.4768 54.2738 24.6707 54.0586ZM28.9967 56.265C29.1817 56.1001 29.2799 55.8972 29.2799 55.6428C29.2799 55.4198 29.2018 55.2348 29.0569 55.0887C28.9387 54.9718 28.7559 54.8658 28.4917 54.7587C28.2574 54.6607 28.1125 54.5736 28.0344 54.5056C27.9565 54.4276 27.9085 54.3307 27.9085 54.1935C27.9085 54.0675 27.9576 53.9705 28.0535 53.8924C28.1516 53.8145 28.2765 53.7766 28.4438 53.7766C28.7058 53.7766 28.9298 53.8456 29.1349 53.9918V53.5056C28.9387 53.4076 28.7258 53.3608 28.4827 53.3608C28.1705 53.3608 27.9074 53.4467 27.7133 53.6126C27.5093 53.7778 27.4123 53.9918 27.4123 54.2437C27.4123 54.4667 27.4792 54.6518 27.6062 54.7878C27.7133 54.9037 27.8962 55.022 28.1503 55.1278C28.3935 55.2349 28.5585 55.3318 28.6465 55.4098C28.7334 55.488 28.7724 55.5849 28.7724 55.6998C28.7724 55.9829 28.5785 56.1291 28.1994 56.1291C27.9073 56.1291 27.6453 56.0332 27.4111 55.8392V56.3631C27.6229 56.4903 27.8772 56.5482 28.1581 56.5482C28.5183 56.5293 28.8003 56.4412 28.9943 56.2662L28.9967 56.265ZM31.3113 53.3483C30.8541 53.3483 30.4862 53.4844 30.2131 53.7475C29.9232 54.0375 29.7671 54.4467 29.7671 54.9718C29.7671 55.4289 29.8932 55.8081 30.1551 56.0901C30.4283 56.3822 30.7872 56.5282 31.2444 56.5282C31.7126 56.5282 32.0695 56.3811 32.3426 56.0889C32.6158 55.7991 32.7518 55.4088 32.7518 54.9227C32.7518 54.4265 32.6247 54.0475 32.3726 53.7654C32.1097 53.4833 31.7594 53.3472 31.3135 53.3472L31.3113 53.3483ZM32.2545 54.9428C32.2545 55.3128 32.1765 55.6039 32.0115 55.799C31.8464 56.0031 31.6033 56.1111 31.2822 56.1111C30.9699 56.1111 30.7281 56.003 30.5429 55.799C30.359 55.5939 30.271 55.3128 30.271 54.9428C30.271 54.5525 30.368 54.2516 30.5631 54.0485C30.747 53.8545 30.9902 53.7564 31.2923 53.7564C31.5933 53.7564 31.8353 53.8544 32.0102 54.0485C32.1664 54.2626 32.2534 54.5536 32.2534 54.9428H32.2545ZM33.568 56.4601H34.053V53.8345H34.7631V53.4264H34.0529V52.9581C34.0529 52.5323 34.2178 52.3182 34.5591 52.3182C34.6739 52.3182 34.791 52.3472 34.878 52.3963V51.9582C34.791 51.9192 34.6739 51.9103 34.5278 51.9103C34.2658 51.9103 34.0518 51.9884 33.8767 52.1533C33.6726 52.3473 33.5645 52.5993 33.5645 52.9406V53.4378H33.0515V53.8459H33.5645V56.4616L33.568 56.4601ZM35.5603 55.6328C35.5603 56.2261 35.8224 56.5282 36.3575 56.5282C36.5515 56.5282 36.6975 56.497 36.8146 56.4279V56.0109C36.7254 56.0778 36.6195 56.1091 36.5025 56.1091C36.3375 56.1091 36.2215 56.0699 36.1535 55.9818C36.0843 55.895 36.0453 55.7477 36.0453 55.5448V53.8334H36.8145V53.4253H36.0453V52.5312C35.8781 52.5891 35.7142 52.6382 35.5592 52.6872V53.4252H35.0352V53.8334H35.5592V55.6318L35.5603 55.6328ZM87.7391 61.2231C87.5742 61.0671 87.379 60.989 87.1371 60.989C86.8919 60.989 86.6889 61.0671 86.5239 61.2343C86.3589 61.3982 86.2807 61.6021 86.2807 61.8364C86.2807 62.0795 86.3589 62.2824 86.5226 62.4384C86.6877 62.5945 86.8906 62.6726 87.1359 62.6726C87.3778 62.6726 87.5819 62.5945 87.7492 62.4295C87.9131 62.2623 88 62.0694 88 61.8275C87.9911 61.5822 87.903 61.3792 87.738 61.2232L87.7391 61.2231ZM87.6611 62.3716C87.5162 62.5164 87.34 62.5833 87.1259 62.5833C86.9142 62.5833 86.738 62.5164 86.5908 62.3716C86.4459 62.2244 86.3678 62.0404 86.3678 61.8252C86.3678 61.6133 86.4347 61.4373 86.5819 61.2901C86.7267 61.1452 86.9019 61.0782 87.1259 61.0782C87.3378 61.0782 87.514 61.1452 87.6611 61.2901C87.806 61.4373 87.8841 61.6133 87.8841 61.8252C87.8841 62.0505 87.8172 62.2244 87.6611 62.3716ZM87.224 61.8754C87.311 61.8553 87.3802 61.8163 87.4281 61.7684C87.4772 61.7181 87.4951 61.6501 87.4951 61.5722C87.4951 61.4852 87.4672 61.4161 87.4081 61.3682C87.3412 61.3124 87.2331 61.2822 87.0961 61.2822H86.7861V62.3704H86.9422V61.9133H87.0391C87.1061 61.9133 87.173 61.9801 87.2331 62.1072L87.349 62.3692H87.5342L87.3893 62.0771C87.3391 61.95 87.2811 61.8919 87.2221 61.8729L87.224 61.8754ZM87.117 61.7773H86.9498V61.4094H87.087C87.184 61.4094 87.2519 61.4272 87.291 61.4574C87.33 61.4863 87.3389 61.5243 87.3389 61.5934C87.3389 61.7194 87.2609 61.7774 87.116 61.7774L87.117 61.7773ZM59.9919 53.3005H60.1279V52.2112H60.4879V52.0751H59.6318V52.2112H59.992V53.3005H59.9919ZM60.8169 52.4821C60.8169 52.3761 60.8169 52.2891 60.8091 52.2402C60.818 52.2981 60.8381 52.3372 60.847 52.3662L61.2652 53.3005H61.3321L61.7512 52.3572C61.7624 52.3282 61.7714 52.2903 61.7903 52.2402C61.7813 52.3372 61.7813 52.4151 61.7813 52.4743V53.2994H61.9263V52.0751H61.7512L61.3722 52.9203C61.3633 52.9504 61.333 53.0094 61.3142 53.0764H61.303C61.2952 53.0373 61.2752 52.9983 61.2473 52.9315L60.8682 52.0752H60.672V53.3016H60.8091V52.4833L60.8169 52.4821Z" fill="#231F1F"/>
<defs>
<linearGradient id="paint0_linear_115_41" x1="37.169" y1="47.7645" x2="40.204" y2="45.9712" gradientUnits="userSpaceOnUse">
<stop stop-color="#909CA9"/>
<stop offset="1" stop-color="#EDEDEE"/>
</linearGradient>
<linearGradient id="paint1_linear_115_41" x1="37.2385" y1="13.956" x2="39.6805" y2="13.956" gradientUnits="userSpaceOnUse">
<stop stop-color="#939FAB"/>
<stop offset="1" stop-color="#DCDEE1"/>
</linearGradient>
<radialGradient id="paint2_radial_115_41" cx="0" cy="0" r="1" gradientUnits="userSpaceOnUse" gradientTransform="translate(49.5608 25.1557) rotate(-171.457) scale(3.1484 6.29836)">
<stop stop-color="#EE352C"/>
<stop offset="1" stop-color="#A91D22"/>
</radialGradient>
</defs>
</svg>
