<svg width="40" height="40" viewBox="0 0 40 40" fill="none" xmlns="http://www.w3.org/2000/svg">
<path d="M23.3333 23.3335H16.6667V20.0002H23.3333V23.3335ZM23.3333 18.3335H10V15.0002H23.3333V18.3335ZM23.3333 13.3335H10V10.0002H23.3333V13.3335ZM26.6667 30.0002C27.5833 30.0002 28.3681 29.6738 29.0208 29.021C29.6736 28.3682 30 27.5835 30 26.6668V6.66683C30 5.75016 29.6736 4.96544 29.0208 4.31266C28.3681 3.65988 27.5833 3.3335 26.6667 3.3335H6.66667C5.75 3.3335 4.96528 3.65988 4.3125 4.31266C3.65972 4.96544 3.33333 5.75016 3.33333 6.66683V26.6668C3.33333 27.5835 3.65972 28.3682 4.3125 29.021C4.96528 29.6738 5.75 30.0002 6.66667 30.0002H26.6667ZM33.3333 36.6668C34.25 36.6668 35.0347 36.3404 35.6875 35.6877C36.3403 35.0349 36.6667 34.2502 36.6667 33.3335V10.0002H33.3333V33.3335H10V36.6668H33.3333Z" fill="url(#paint0_linear_86_52)"/>
<defs>
<linearGradient id="paint0_linear_86_52" x1="20.0132" y1="3.3335" x2="20.0132" y2="35.0864" gradientUnits="userSpaceOnUse">
<stop stop-color="#7F36B3"/>
<stop offset="1" stop-color="#6B18A7"/>
<stop offset="1" stop-color="#36174C"/>
</linearGradient>
</defs>
</svg>
