<svg width="42" height="42" viewBox="0 0 68 73" fill="none" xmlns="http://www.w3.org/2000/svg">
<path d="M19.8333 51.8078C18.275 51.8078 16.941 51.222 15.8312 50.0504C14.7215 48.8788 14.1666 47.4704 14.1666 45.8251V15.9114C14.1666 14.2662 14.7215 12.8578 15.8312 11.6861C16.941 10.5145 18.275 9.92871 19.8333 9.92871H59.5C61.0583 9.92871 62.3923 10.5145 63.5021 11.6861C64.6118 12.8578 65.1666 14.2662 65.1666 15.9114V45.8251C65.1666 47.4704 64.6118 48.8788 63.5021 50.0504C62.3923 51.222 61.0583 51.8078 59.5 51.8078H19.8333ZM39.6666 37.7484L19.8333 23.1655V45.8251H59.5V23.1655L39.6666 37.7484ZM39.6666 30.4196L59.5 15.9114H19.8333L39.6666 30.4196ZM8.49998 63.7733C6.94165 63.7733 5.60762 63.1875 4.4979 62.0159C3.38817 60.8443 2.83331 59.4358 2.83331 57.7906V20.3985H8.49998V57.7906H55.25V63.7733H8.49998Z" fill="url(#paint0_linear_115_426)"/>
<defs>
<linearGradient id="paint0_linear_115_426" x1="33.9753" y1="9.92871" x2="33.9753" y2="61.2203" gradientUnits="userSpaceOnUse">
<stop stop-color="#7F36B3"/>
<stop offset="1" stop-color="#6B18A7"/>
<stop offset="1" stop-color="#36174C"/>
</linearGradient>
</defs>
</svg>
