<svg width="42" height="42" viewBox="0 0 66 67" fill="none" xmlns="http://www.w3.org/2000/svg">
<path d="M54.8625 58.2316C49.1333 58.2316 43.4729 56.9862 37.8813 54.4955C32.2896 52.0048 27.2021 48.4743 22.6188 43.9042C18.0354 39.334 14.4948 34.2612 11.9969 28.6856C9.49896 23.11 8.25 17.4659 8.25 11.7532C8.25 10.9306 8.525 10.2451 9.075 9.69665C9.625 9.14823 10.3125 8.87402 11.1375 8.87402H22.275C22.9167 8.87402 23.4896 9.09111 23.9938 9.52527C24.4979 9.95943 24.7958 10.4736 24.8875 11.0677L26.675 20.665C26.7667 21.3962 26.7438 22.0132 26.6063 22.5159C26.4688 23.0186 26.2167 23.4528 25.85 23.8184L19.1813 30.5365C20.0979 32.2275 21.1865 33.8613 22.4469 35.438C23.7073 37.0147 25.0938 38.5343 26.6063 39.9967C28.0271 41.4134 29.5167 42.7274 31.075 43.9385C32.6333 45.1495 34.2833 46.2578 36.025 47.2632L42.4875 40.8193C42.9 40.408 43.4385 40.0995 44.1031 39.8939C44.7677 39.6882 45.4208 39.6311 46.0625 39.7225L55.55 41.642C56.1917 41.8248 56.7188 42.1561 57.1313 42.636C57.5438 43.1158 57.75 43.6528 57.75 44.2469V55.3524C57.75 56.175 57.475 56.8605 56.925 57.409C56.375 57.9574 55.6875 58.2316 54.8625 58.2316ZM16.5688 25.3265L21.1063 20.8021L19.9375 14.3582H13.8188C14.0479 16.232 14.3688 18.0829 14.7813 19.9109C15.1938 21.739 15.7896 23.5442 16.5688 25.3265ZM41.1813 49.8682C42.9688 50.6451 44.7906 51.2621 46.6469 51.7191C48.5031 52.1761 50.3708 52.4732 52.25 52.6103V46.5777L45.7875 45.2752L41.1813 49.8682Z" fill="url(#paint0_linear_115_428)"/>
<defs>
<linearGradient id="paint0_linear_115_428" x1="32.9804" y1="8.87402" x2="32.9804" y2="55.8913" gradientUnits="userSpaceOnUse">
<stop stop-color="#7F36B3"/>
<stop offset="1" stop-color="#6B18A7"/>
<stop offset="1" stop-color="#36174C"/>
</linearGradient>
</defs>
</svg>
