<svg width="344" height="188" viewBox="0 0 344 188" fill="none" xmlns="http://www.w3.org/2000/svg">
<g filter="url(#filter0_d_92_225)">
<circle cx="12" cy="92" r="10" fill="#A97EE0"/>
<circle cx="12" cy="134" r="10" fill="#A97EE0"/>
<circle cx="12" cy="174" r="10" fill="#A97EE0"/>
<circle cx="52" cy="92" r="10" fill="#A97EE0"/>
<circle cx="52" cy="134" r="10" fill="#A97EE0"/>
<circle cx="52" cy="174" r="10" fill="#A97EE0"/>
<circle cx="12" cy="10" r="10" fill="#A97EE0"/>
<circle cx="12" cy="52" r="10" fill="#A97EE0"/>
<circle cx="52" cy="10" r="10" fill="#A97EE0"/>
<circle cx="52" cy="50" r="10" fill="#A97EE0"/>
<circle cx="92" cy="92" r="10" fill="#A97EE0"/>
<circle cx="92" cy="134" r="10" fill="#A97EE0"/>
<circle cx="92" cy="174" r="10" fill="#A97EE0"/>
<circle cx="252" cy="92" r="10" fill="#A97EE0"/>
<circle cx="252" cy="134" r="10" fill="#A97EE0"/>
<circle cx="252" cy="174" r="10" fill="#A97EE0"/>
<circle cx="132" cy="92" r="10" fill="#A97EE0"/>
<circle cx="132" cy="134" r="10" fill="#A97EE0"/>
<circle cx="132" cy="174" r="10" fill="#A97EE0"/>
<circle cx="292" cy="92" r="10" fill="#A97EE0"/>
<circle cx="292" cy="134" r="10" fill="#A97EE0"/>
<circle cx="292" cy="174" r="10" fill="#A97EE0"/>
<circle cx="172" cy="92" r="10" fill="#A97EE0"/>
<circle cx="172" cy="134" r="10" fill="#A97EE0"/>
<circle cx="172" cy="174" r="10" fill="#A97EE0"/>
<circle cx="332" cy="92" r="10" fill="#A97EE0"/>
<circle cx="332" cy="134" r="10" fill="#A97EE0"/>
<circle cx="332" cy="174" r="10" fill="#A97EE0"/>
<circle cx="212" cy="92" r="10" fill="#A97EE0"/>
<circle cx="212" cy="134" r="10" fill="#A97EE0"/>
<circle cx="212" cy="174" r="10" fill="#A97EE0"/>
<circle cx="92" cy="10" r="10" fill="#A97EE0"/>
<circle cx="92" cy="52" r="10" fill="#A97EE0"/>
<circle cx="252" cy="10" r="10" fill="#A97EE0"/>
<circle cx="252" cy="52" r="10" fill="#A97EE0"/>
<circle cx="132" cy="10" r="10" fill="#A97EE0"/>
<circle cx="132" cy="52" r="10" fill="#A97EE0"/>
<circle cx="292" cy="10" r="10" fill="#A97EE0"/>
<circle cx="292" cy="52" r="10" fill="#A97EE0"/>
<circle cx="172" cy="10" r="10" fill="#A97EE0"/>
<circle cx="172" cy="52" r="10" fill="#A97EE0"/>
<circle cx="332" cy="10" r="10" fill="#A97EE0"/>
<circle cx="332" cy="52" r="10" fill="#A97EE0"/>
<circle cx="212" cy="10" r="10" fill="#A97EE0"/>
<circle cx="212" cy="52" r="10" fill="#A97EE0"/>
</g>
<defs>
<filter id="filter0_d_92_225" x="0" y="0" width="344" height="188" filterUnits="userSpaceOnUse" color-interpolation-filters="sRGB">
<feFlood flood-opacity="0" result="BackgroundImageFix"/>
<feColorMatrix in="SourceAlpha" type="matrix" values="0 0 0 0 0 0 0 0 0 0 0 0 0 0 0 0 0 0 127 0" result="hardAlpha"/>
<feOffset dy="2"/>
<feGaussianBlur stdDeviation="1"/>
<feComposite in2="hardAlpha" operator="out"/>
<feColorMatrix type="matrix" values="0 0 0 0 0 0 0 0 0 0 0 0 0 0 0 0 0 0 0.1 0"/>
<feBlend mode="normal" in2="BackgroundImageFix" result="effect1_dropShadow_92_225"/>
<feBlend mode="normal" in="SourceGraphic" in2="effect1_dropShadow_92_225" result="shape"/>
</filter>
</defs>
</svg>
