<svg width="32" height="32" viewBox="0 0 32 32" fill="none" xmlns="http://www.w3.org/2000/svg">
<g clip-path="url(#clip0_412_10)">
<circle cx="16" cy="16" r="16" fill="#101010"/>
<path d="M11.44 21.168C10.272 21.168 9.216 20.968 8.272 20.568C7.344 20.168 6.608 19.592 6.064 18.84C5.52 18.088 5.24 17.2 5.224 16.176H8.824C8.872 16.864 9.112 17.408 9.544 17.808C9.992 18.208 10.6 18.408 11.368 18.408C12.152 18.408 12.768 18.224 13.216 17.856C13.664 17.472 13.888 16.976 13.888 16.368C13.888 15.872 13.736 15.464 13.432 15.144C13.128 14.824 12.744 14.576 12.28 14.4C11.832 14.208 11.208 14 10.408 13.776C9.32 13.456 8.432 13.144 7.744 12.84C7.072 12.52 6.488 12.048 5.992 11.424C5.512 10.784 5.272 9.936 5.272 8.88C5.272 7.888 5.52 7.024 6.016 6.288C6.512 5.552 7.208 4.992 8.104 4.608C9 4.208 10.024 4.008 11.176 4.008C12.904 4.008 14.304 4.432 15.376 5.28C16.464 6.112 17.064 7.28 17.176 8.784H13.48C13.448 8.208 13.2 7.736 12.736 7.368C12.288 6.984 11.688 6.792 10.936 6.792C10.28 6.792 9.752 6.96 9.352 7.296C8.968 7.632 8.776 8.12 8.776 8.76C8.776 9.208 8.92 9.584 9.208 9.888C9.512 10.176 9.88 10.416 10.312 10.608C10.76 10.784 11.384 10.992 12.184 11.232C13.272 11.552 14.16 11.872 14.848 12.192C15.536 12.512 16.128 12.992 16.624 13.632C17.12 14.272 17.368 15.112 17.368 16.152C17.368 17.048 17.136 17.88 16.672 18.648C16.208 19.416 15.528 20.032 14.632 20.496C13.736 20.944 12.672 21.168 11.44 21.168Z" fill="white"/>
<path d="M12.7 22C12.7 20.6267 13.0067 19.4 13.62 18.32C14.2467 17.2267 15.0933 16.38 16.16 15.78C17.24 15.1667 18.4467 14.86 19.78 14.86C21.34 14.86 22.7067 15.26 23.88 16.06C25.0533 16.86 25.8733 17.9667 26.34 19.38H23.12C22.8 18.7133 22.3467 18.2133 21.76 17.88C21.1867 17.5467 20.52 17.38 19.76 17.38C18.9467 17.38 18.22 17.5733 17.58 17.96C16.9533 18.3333 16.46 18.8667 16.1 19.56C15.7533 20.2533 15.58 21.0667 15.58 22C15.58 22.92 15.7533 23.7333 16.1 24.44C16.46 25.1333 16.9533 25.6733 17.58 26.06C18.22 26.4333 18.9467 26.62 19.76 26.62C20.52 26.62 21.1867 26.4533 21.76 26.12C22.3467 25.7733 22.8 25.2667 23.12 24.6H26.34C25.8733 26.0267 25.0533 27.14 23.88 27.94C22.72 28.7267 21.3533 29.12 19.78 29.12C18.4467 29.12 17.24 28.82 16.16 28.22C15.0933 27.6067 14.2467 26.76 13.62 25.68C13.0067 24.6 12.7 23.3733 12.7 22Z" fill="#933FCF"/>
</g>
<defs>
<clipPath id="clip0_412_10">
<rect width="32" height="32" fill="white"/>
</clipPath>
</defs>
</svg>
