<svg width="103" height="103" viewBox="0 0 103 103" fill="none" xmlns="http://www.w3.org/2000/svg">
<path d="M80.7821 24.2778C75.5033 21.8315 69.8813 20.029 63.9588 18.999C63.2292 20.2865 62.3708 22.0461 61.8129 23.4624C55.5471 22.5182 49.3242 22.5182 43.1871 23.4624C42.5863 22.0461 41.728 20.2865 40.9984 18.999C35.0759 20.029 29.4538 21.8315 24.1751 24.2778C13.5317 40.3286 10.6563 55.9933 12.0726 71.4004C19.1538 76.6792 25.9776 79.855 32.7155 81.9579C34.3892 79.6833 35.8484 77.2371 37.1359 74.705C34.6896 73.8037 32.3721 72.645 30.1834 71.3146C30.7842 70.8854 31.3421 70.4133 31.9001 69.9842C45.3329 76.25 59.8817 76.25 73.1429 69.9842C73.7008 70.4562 74.2588 70.8854 74.8596 71.3146C72.6708 72.645 70.3104 73.7608 67.9071 74.705C69.1946 77.2371 70.6538 79.6833 72.3275 81.9579C79.0654 79.855 85.9321 76.6792 92.9704 71.4004C94.6442 53.5042 90.095 38.0111 80.8679 24.2778H80.7821ZM38.9384 61.9587C34.9042 61.9587 31.5996 58.225 31.5996 53.6329C31.5996 49.0408 34.8184 45.3071 38.9384 45.3071C43.0584 45.3071 46.32 49.0408 46.2771 53.6329C46.2771 58.1821 43.0584 61.9587 38.9384 61.9587ZM66.0188 61.9587C61.9846 61.9587 58.68 58.225 58.68 53.6329C58.68 49.0408 61.8988 45.3071 66.0188 45.3071C70.1388 45.3071 73.4004 49.0408 73.3575 53.6329C73.3575 58.1821 70.1388 61.9587 66.0188 61.9587Z" fill="#F1F1F1"/>
</svg>
