<svg width="109" height="109" viewBox="0 0 109 109" fill="none" xmlns="http://www.w3.org/2000/svg">
<path fill-rule="evenodd" clip-rule="evenodd" d="M54.5 54.5C54.5 46.9753 60.6003 40.875 68.125 40.875C75.6497 40.875 81.75 46.9753 81.75 54.5C81.75 62.0247 75.6497 68.125 68.125 68.125C60.6003 68.125 54.5 62.0247 54.5 54.5Z" fill="#1ABCFE"/>
<path fill-rule="evenodd" clip-rule="evenodd" d="M27.25 81.75C27.25 74.2253 33.3501 68.125 40.875 68.125H54.5V81.75C54.5 89.2747 48.3997 95.375 40.875 95.375C33.3501 95.375 27.25 89.2747 27.25 81.75Z" fill="#0ACF83"/>
<path fill-rule="evenodd" clip-rule="evenodd" d="M54.5 13.625V40.875H68.125C75.6497 40.875 81.75 34.7747 81.75 27.25C81.75 19.7251 75.6497 13.625 68.125 13.625H54.5Z" fill="#FF7262"/>
<path fill-rule="evenodd" clip-rule="evenodd" d="M27.25 27.25C27.25 34.7747 33.3501 40.875 40.875 40.875H54.5V13.625H40.875C33.3501 13.625 27.25 19.7251 27.25 27.25Z" fill="#F24E1E"/>
<path fill-rule="evenodd" clip-rule="evenodd" d="M27.25 54.5C27.25 62.0247 33.3501 68.125 40.875 68.125H54.5V40.875H40.875C33.3501 40.875 27.25 46.9753 27.25 54.5Z" fill="#A259FF"/>
</svg>
