<svg width="104" height="100" viewBox="0 0 104 100" fill="none" xmlns="http://www.w3.org/2000/svg">
<g clip-path="url(#clip0_115_93)">
<path fill-rule="evenodd" clip-rule="evenodd" d="M52 0C80.7196 0 104 22.9496 104 51.2646C104 73.9096 89.1176 93.1198 68.4684 99.9048C65.832 100.41 64.896 98.8088 64.896 97.4438C64.896 95.7538 64.9584 90.234 64.9584 83.374C64.9584 78.594 63.2944 75.4743 61.4276 73.8843C73.008 72.6143 85.176 68.2789 85.176 48.5889C85.176 42.9889 83.1584 38.4191 79.82 34.8291C80.3608 33.5341 82.1444 28.3198 79.3104 21.2598C79.3104 21.2598 74.9528 19.8861 65.026 26.5161C60.8712 25.3811 56.42 24.81 52 24.79C47.58 24.81 43.134 25.3811 38.9844 26.5161C29.0472 19.8861 24.6792 21.2598 24.6792 21.2598C21.8556 28.3198 23.6392 33.5341 24.1748 34.8291C20.852 38.4191 18.8188 42.9889 18.8188 48.5889C18.8188 68.2289 30.9608 72.6308 42.51 73.9258C41.0228 75.2058 39.676 77.4638 39.208 80.7788C36.244 82.0888 28.7144 84.356 24.076 76.521C24.076 76.521 21.3252 71.5953 16.1044 71.2353C16.1044 71.2353 11.0344 71.1706 15.7508 74.3506C15.7508 74.3506 19.1568 75.9256 21.5228 81.8506C21.5228 81.8506 24.5752 91.0004 39.0416 87.9004C39.0676 92.1854 39.1144 96.2238 39.1144 97.4438C39.1144 98.7988 38.1576 100.385 35.5628 99.9097C14.898 93.1347 0 73.9146 0 51.2646C0 22.9496 23.2856 0 52 0Z" fill="#101010"/>
</g>
<defs>
<clipPath id="clip0_115_93">
<rect width="104" height="100" fill="white"/>
</clipPath>
</defs>
</svg>
