<svg width="42" height="42" viewBox="0 0 76 72" fill="none" xmlns="http://www.w3.org/2000/svg">
<g clip-path="url(#clip0_115_432)">
<path fill-rule="evenodd" clip-rule="evenodd" d="M38 0C58.9874 0 76 16.5237 76 36.9105C76 53.2149 65.1244 67.0462 50.0346 71.9314C48.108 72.295 47.424 71.1424 47.424 70.1596C47.424 68.9428 47.4696 64.9685 47.4696 60.0293C47.4696 56.5877 46.2536 54.3415 44.8894 53.1967C53.352 52.2823 62.244 49.1608 62.244 34.984C62.244 30.952 60.7696 27.6618 58.33 25.077C58.7252 24.1446 60.0286 20.3902 57.9576 15.307C57.9576 15.307 54.7732 14.318 47.519 19.0916C44.4828 18.2744 41.23 17.8632 38 17.8488C34.77 17.8632 31.521 18.2744 28.4886 19.0916C21.2268 14.318 18.0348 15.307 18.0348 15.307C15.9714 20.3902 17.2748 24.1446 17.6662 25.077C15.238 27.6618 13.7522 30.952 13.7522 34.984C13.7522 49.1248 22.6252 52.2942 31.065 53.2266C29.9782 54.1482 28.994 55.7739 28.652 58.1607C26.486 59.1039 20.9836 60.7363 17.594 55.0951C17.594 55.0951 15.5838 51.5486 11.7686 51.2894C11.7686 51.2894 8.0636 51.2428 11.5102 53.5324C11.5102 53.5324 13.9992 54.6664 15.7282 58.9324C15.7282 58.9324 17.9588 65.5203 28.5304 63.2883C28.5494 66.3735 28.5836 69.2812 28.5836 70.1596C28.5836 71.1352 27.8844 72.277 25.9882 71.935C10.887 67.057 0 53.2185 0 36.9105C0 16.5237 17.0164 0 38 0Z" fill="#7B2AB6"/>
</g>
<defs>
<clipPath id="clip0_115_432">
<rect width="76" height="72" fill="white"/>
</clipPath>
</defs>
</svg>
