<svg width="244" height="40" viewBox="0 0 400 40" fill="none" xmlns="http://www.w3.org/2000/svg">
<path d="M13.168 35.336C10.704 35.336 8.496 34.936 6.544 34.136C4.592 33.336 3.024 32.152 1.84 30.584C0.688 29.016 0.0800002 27.128 0.0160002 24.92H8.752C8.88 26.168 9.312 27.128 10.048 27.8C10.784 28.44 11.744 28.76 12.928 28.76C14.144 28.76 15.104 28.488 15.808 27.944C16.512 27.368 16.864 26.584 16.864 25.592C16.864 24.76 16.576 24.072 16 23.528C15.456 22.984 14.768 22.536 13.936 22.184C13.136 21.832 11.984 21.432 10.48 20.984C8.304 20.312 6.528 19.64 5.152 18.968C3.776 18.296 2.592 17.304 1.6 15.992C0.608 14.68 0.112 12.968 0.112 10.856C0.112 7.72 1.248 5.272 3.52 3.512C5.792 1.72 8.752 0.823999 12.4 0.823999C16.112 0.823999 19.104 1.72 21.376 3.512C23.648 5.272 24.864 7.736 25.024 10.904H16.144C16.08 9.816 15.68 8.968 14.944 8.36C14.208 7.72 13.264 7.4 12.112 7.4C11.12 7.4 10.32 7.672 9.712 8.216C9.104 8.728 8.8 9.48 8.8 10.472C8.8 11.56 9.312 12.408 10.336 13.016C11.36 13.624 12.96 14.28 15.136 14.984C17.312 15.72 19.072 16.424 20.416 17.096C21.792 17.768 22.976 18.744 23.968 20.024C24.96 21.304 25.456 22.952 25.456 24.968C25.456 26.888 24.96 28.632 23.968 30.2C23.008 31.768 21.6 33.016 19.744 33.944C17.888 34.872 15.696 35.336 13.168 35.336ZM52.2032 29.048H39.6273L37.6112 35H29.0192L41.2112 1.304H50.7153L62.9073 35H54.2192L52.2032 29.048ZM50.0912 22.712L45.9153 10.376L41.7872 22.712H50.0912ZM105.498 1.304V35H97.2899V14.792L89.7539 35H83.1299L75.5459 14.744V35H67.3379V1.304H77.0339L86.4899 24.632L95.8499 1.304H105.498ZM120.184 1.304V21.464C120.184 23.48 120.68 25.032 121.672 26.12C122.664 27.208 124.12 27.752 126.04 27.752C127.96 27.752 129.432 27.208 130.456 26.12C131.48 25.032 131.992 23.48 131.992 21.464V1.304H140.2V21.416C140.2 24.424 139.56 26.968 138.28 29.048C137 31.128 135.272 32.696 133.096 33.752C130.952 34.808 128.552 35.336 125.896 35.336C123.24 35.336 120.856 34.824 118.744 33.8C116.664 32.744 115.016 31.176 113.8 29.096C112.584 26.984 111.976 24.424 111.976 21.416V1.304H120.184ZM154.892 7.88V14.696H165.884V21.032H154.892V28.424H167.324V35H146.684V1.304H167.324V7.88H154.892ZM181.581 28.664H192.333V35H173.373V1.304H181.581V28.664Z" fill="white"/>
<path d="M195.576 18.104C195.576 14.776 196.296 11.816 197.736 9.224C199.176 6.6 201.176 4.568 203.736 3.128C206.328 1.656 209.256 0.919998 212.52 0.919998C216.52 0.919998 219.944 1.976 222.792 4.088C225.64 6.2 227.544 9.08 228.504 12.728H219.48C218.808 11.32 217.848 10.248 216.6 9.512C215.384 8.776 213.992 8.408 212.424 8.408C209.896 8.408 207.848 9.288 206.28 11.048C204.712 12.808 203.928 15.16 203.928 18.104C203.928 21.048 204.712 23.4 206.28 25.16C207.848 26.92 209.896 27.8 212.424 27.8C213.992 27.8 215.384 27.432 216.6 26.696C217.848 25.96 218.808 24.888 219.48 23.48H228.504C227.544 27.128 225.64 30.008 222.792 32.12C219.944 34.2 216.52 35.24 212.52 35.24C209.256 35.24 206.328 34.52 203.736 33.08C201.176 31.608 199.176 29.576 197.736 26.984C196.296 24.392 195.576 21.432 195.576 18.104ZM255.226 29.048H242.65L240.634 35H232.042L244.234 1.304H253.738L265.93 35H257.242L255.226 29.048ZM253.114 22.712L248.938 10.376L244.81 22.712H253.114ZM279.097 28.28H293.593V35H269.785V28.76L284.185 8.024H269.785V1.304H293.593V7.544L279.097 28.28ZM320.651 29.048H308.075L306.059 35H297.467L309.659 1.304H319.163L331.355 35H322.667L320.651 29.048ZM318.539 22.712L314.363 10.376L310.235 22.712H318.539ZM343.993 7.88V14.696H354.985V21.032H343.993V28.424H356.425V35H335.785V1.304H356.425V7.88H343.993ZM374.666 35.336C372.202 35.336 369.994 34.936 368.042 34.136C366.09 33.336 364.522 32.152 363.338 30.584C362.186 29.016 361.578 27.128 361.514 24.92H370.25C370.378 26.168 370.81 27.128 371.546 27.8C372.282 28.44 373.242 28.76 374.426 28.76C375.642 28.76 376.602 28.488 377.306 27.944C378.01 27.368 378.362 26.584 378.362 25.592C378.362 24.76 378.074 24.072 377.498 23.528C376.954 22.984 376.266 22.536 375.434 22.184C374.634 21.832 373.482 21.432 371.978 20.984C369.802 20.312 368.026 19.64 366.65 18.968C365.274 18.296 364.09 17.304 363.098 15.992C362.106 14.68 361.61 12.968 361.61 10.856C361.61 7.72 362.746 5.272 365.018 3.512C367.29 1.72 370.25 0.823999 373.898 0.823999C377.61 0.823999 380.602 1.72 382.874 3.512C385.146 5.272 386.362 7.736 386.522 10.904H377.642C377.578 9.816 377.178 8.968 376.442 8.36C375.706 7.72 374.762 7.4 373.61 7.4C372.618 7.4 371.818 7.672 371.21 8.216C370.602 8.728 370.298 9.48 370.298 10.472C370.298 11.56 370.81 12.408 371.834 13.016C372.858 13.624 374.458 14.28 376.634 14.984C378.81 15.72 380.57 16.424 381.914 17.096C383.29 17.768 384.474 18.744 385.466 20.024C386.458 21.304 386.954 22.952 386.954 24.968C386.954 26.888 386.458 28.632 385.466 30.2C384.506 31.768 383.098 33.016 381.242 33.944C379.386 34.872 377.194 35.336 374.666 35.336Z" fill="#B65EF5"/>
</svg>
