<svg width="82" height="82" viewBox="0 0 82 82" fill="none" xmlns="http://www.w3.org/2000/svg">
<g clip-path="url(#clip0_115_132)">
<path d="M69.9737 16.0741L64.6945 75.214L40.9645 81.7927L17.2999 75.2232L12.0263 16.0741H69.9737Z" fill="#E44D26"/>
<path d="M41 76.7642L60.175 71.4481L64.6864 20.9104H41V76.7642Z" fill="#F16529"/>
<path d="M30.7376 35.4194H41V28.1649H22.8094L22.9831 30.1112L24.7661 50.1023H41V42.848H31.4005L30.7376 35.4194Z" fill="#EBEBEB"/>
<path d="M32.3725 53.7296H25.0902L26.1065 65.1201L40.9666 69.2453L41 69.2361V61.6884L40.9682 61.6969L32.8889 59.5153L32.3725 53.7296Z" fill="#EBEBEB"/>
<path d="M17.4178 -0.00012207H21.1044V3.64221H24.4767V-0.00012207H28.1635V11.0298H24.4769V7.33631H21.1045V11.0298H17.4179L17.4178 -0.00012207Z" fill="black"/>
<path d="M33.0115 3.65755H29.766V-0.00012207H39.9453V3.65755H36.6984V11.0298H33.0116L33.0115 3.65755Z" fill="black"/>
<path d="M41.5609 -0.00012207H45.405L47.7697 3.87545L50.1319 -0.00012207H53.9774V11.0298H50.306V5.56275L47.7697 9.48449H47.7062L45.1681 5.56275V11.0298H41.5609V-0.00012207Z" fill="black"/>
<path d="M55.8122 -0.00012207H59.4999V7.38392H64.6843V11.0298H55.8122V-0.00012207Z" fill="black"/>
<path d="M40.9749 50.1023H49.9079L49.0659 59.5108L40.9749 61.6946V69.2419L55.8468 65.1201L55.9559 63.8945L57.6607 44.796L57.8377 42.848H40.9749V50.1023Z" fill="white"/>
<path d="M40.9749 35.4017V35.4194H58.4977L58.6433 33.7888L58.9738 30.1112L59.1473 28.1649H40.9749V35.4017Z" fill="white"/>
</g>
<defs>
<clipPath id="clip0_115_132">
<rect width="82" height="82" fill="white"/>
</clipPath>
</defs>
</svg>
