<svg width="100" height="100" viewBox="0 0 100 100" fill="none" xmlns="http://www.w3.org/2000/svg">
<path d="M58.3715 49.9246C58.3715 45.4421 54.6237 41.8077 50 41.8077C45.3769 41.8077 41.6284 45.4421 41.6284 49.9246C41.6284 54.4077 45.3769 58.0418 50 58.0418C54.6237 58.0418 58.3715 54.4077 58.3715 49.9246Z" fill="#53C1DE"/>
<path fill-rule="evenodd" clip-rule="evenodd" d="M77.1887 34.8552C78.9566 27.8898 81.1787 14.9732 73.345 10.5941C65.5478 6.23409 55.4013 14.5887 50.0434 19.6036C44.7013 14.6387 34.2697 6.31978 26.4426 10.7128C18.6485 15.0875 21.052 27.7899 22.8591 34.7989C15.5885 36.8011 3.125 41.1136 3.125 49.9246C3.125 58.7105 15.5755 63.4024 22.8031 65.4027C20.9893 72.4505 18.7061 84.9714 26.5102 89.3364C34.3666 93.7286 44.7656 85.6077 50.1731 80.538C55.5653 85.5824 65.6144 93.7564 73.4131 89.3792C81.2363 84.9883 79.1988 72.2449 77.3916 65.1952C84.3978 63.1905 96.875 58.6008 96.875 49.9246C96.875 41.1983 84.3447 36.8508 77.1887 34.8552ZM76.3006 61.4592C75.1141 57.8174 73.5125 53.9446 71.5534 49.9439C73.4234 46.0377 74.9628 42.2149 76.1163 38.5964C81.3622 40.0711 92.8703 43.4414 92.8703 49.9246C92.8703 56.4686 81.8269 59.8708 76.3006 61.4592ZM71.4063 86.0186C65.5875 89.2842 56.9441 81.4674 52.9619 77.7527C55.6037 74.9511 58.2437 71.6942 60.8203 68.0777C65.3528 67.688 69.6344 67.0505 73.5175 66.1802C74.7894 71.1667 77.2506 82.7383 71.4063 86.0186ZM28.5113 85.9721C22.692 82.7186 25.3518 71.5455 26.6862 66.3539C30.5261 67.1777 34.7769 67.7702 39.32 68.1274C41.9134 71.6661 44.63 74.9189 47.3675 77.7677C43.9853 80.9399 34.3578 89.2405 28.5113 85.9721ZM7.12966 49.9246C7.12966 43.3561 18.569 40.0102 23.9345 38.5392C25.1078 42.2389 26.6467 46.1074 28.5038 50.0193C26.6227 53.9893 25.0618 57.9189 23.8777 61.6624C18.7615 60.2424 7.12966 56.4971 7.12966 49.9246ZM28.4491 14.0734C34.2922 10.7941 43.3584 18.7806 47.2372 22.3753C44.5138 25.2109 41.8222 28.4392 39.2509 31.9577C34.8419 32.3539 30.6211 32.9902 26.7409 33.8427C25.2852 28.1896 22.6122 17.3492 28.4491 14.0734ZM63.6853 36.1783C66.6766 36.5442 69.5425 37.0311 72.2334 37.6267C71.4256 40.1374 70.4187 42.7627 69.2328 45.4539C67.5137 42.2914 65.6684 39.1924 63.6853 36.1783ZM50.0447 25.1502C51.8919 27.0904 53.7419 29.2571 55.5619 31.6077C51.8703 31.4383 48.1728 31.4377 44.4813 31.6052C46.3028 29.2764 48.1687 27.1129 50.0447 25.1502ZM30.8016 45.4511C29.6353 42.7693 28.6374 40.1324 27.8226 37.5858C30.4974 37.0055 33.35 36.5311 36.3219 36.1711C34.3331 39.1786 32.4909 42.2764 30.8016 45.4511ZM36.4072 63.9552C33.3372 63.623 30.4414 63.1727 27.7674 62.6083C28.5951 60.0171 29.6149 57.3233 30.8061 54.5836C32.5187 57.7914 34.3891 60.9192 36.4072 63.9552ZM50.1556 74.9733C48.2575 72.9874 46.3641 70.7908 44.515 68.4283C48.2275 68.5696 51.9472 68.5699 55.6594 68.4092C53.8338 70.8149 51.9903 73.0146 50.1556 74.9733ZM69.2709 54.4442C70.5241 57.2136 71.5803 59.8927 72.4194 62.4402C69.7009 63.0417 66.7662 63.5261 63.6741 63.8858C65.6719 60.8146 67.5466 57.6674 69.2709 54.4442ZM58.5853 64.3564C52.9066 64.7499 47.1925 64.7455 41.5119 64.3886C38.2841 59.8171 35.4106 55.0093 32.9303 50.018C35.3987 45.0371 38.2513 40.2386 41.4638 35.6743C47.1484 35.2577 52.8681 35.2564 58.5528 35.6768C61.7378 40.2408 64.5859 45.0268 67.1116 49.9627C64.6159 54.9411 61.7484 59.7492 58.5853 64.3564ZM71.3447 13.958C77.1894 17.2266 74.5878 28.8351 73.3109 33.883C69.4216 33.0127 65.1978 32.3652 60.7759 31.9627C58.1997 28.4062 55.5306 25.1723 52.8512 22.3733C56.7797 18.7012 65.5566 10.7214 71.3447 13.958Z" fill="#53C1DE"/>
</svg>
