<svg width="100" height="100" viewBox="0 0 100 100" fill="none" xmlns="http://www.w3.org/2000/svg">
<g clip-path="url(#clip0_115_100)">
<path d="M50 0C22.3781 0 0 22.3781 0 50C0 77.6219 22.3781 100 50 100C77.6219 100 100 77.6219 100 50C100 22.3781 77.6219 0 50 0ZM29.0031 32C32.1438 32 34.5875 34.2906 34.8625 36.9969C35.1594 39.4375 34.1469 41.5719 31.4469 42.8562C30.0125 43.5719 29.4438 43.5719 29.15 43.1469C29.0031 42.8563 29.15 42.5813 29.4406 42.2844C32.0156 40.1563 32.0156 38.4313 31.7187 36.0063C31.5719 34.4281 30.4344 33.4312 29.2937 33.4312C24.2812 33.4312 17.1531 44.5656 18.1438 52.7188C18.5844 55.8594 20.4406 59.5719 24.4281 59.5719C25.7156 59.5719 27.15 59.1469 28.4312 58.5813C30.5156 57.4719 31.7688 56.6281 33.0063 55.2437C32.6969 51.5469 35.9344 46.7156 40.7187 46.7156C42.8687 46.7156 44.5781 47.5781 44.7219 49.1562C45 51.2906 43.1437 51.5813 42.575 51.5813C42.0031 51.5813 40.9969 51.4344 40.9969 50.8656C40.8688 50.2938 42.2812 50.575 42.15 49.2875C42.0031 48.425 41.1406 48.15 40.2969 48.15C37.2844 48.15 35.575 52.3 36 54.8531C36.1469 56.0062 36.7125 57.15 37.8719 57.15C38.7188 57.15 40.0062 55.8625 40.425 54.0094C40.7156 52.7219 41.8594 51.8594 42.8656 51.8594C43.2906 51.8594 43.5656 52.0062 43.7125 52.575V53.1469C43.5844 53.7187 43.1406 55.4437 43.2906 55.8625C43.2906 56.1594 43.4375 56.5781 44.0031 56.5781C44.3781 56.5781 45.8125 55.8281 47.2438 54.6562C47.7156 52.1969 48.2844 49.2531 48.2844 49.0094C48.4313 48 48.8563 47.0062 50.8563 47.0062C51.2938 47.0062 51.5719 47.1531 51.7187 47.7219V48.2938L51.1469 50.8656C53.0063 48.4406 55.7219 46.7313 57.4313 46.7313C58.1469 46.7313 58.7188 47.1531 58.7188 47.8687C58.7188 48.2937 58.7187 49.0094 58.4219 49.7281C57.8562 51.2906 57.1375 53.7312 56.7125 55.8625C56.7125 56.4344 56.8594 57.0031 57.575 57.0031C58.2906 57.0031 60.425 56.1563 62.1344 53.8625L62.1687 53.8469C62.1687 53.5688 62.1344 53.2937 62.1344 53.0187C62.1344 51.2937 62.2813 49.8781 62.575 48.8687C62.8656 47.7281 64.2844 46.7344 65.1469 46.7344C65.5688 46.7344 66.0094 47.0094 66.0094 47.4344C66.0094 47.5812 66.0094 47.8719 65.8625 48.0063C65.2906 49.8781 64.85 51.5844 64.85 53.2938C64.85 54.3031 65 55.7188 65.2906 56.5813C65.2906 56.7281 65.4188 56.8719 65.5656 56.8719C65.8625 56.8719 67.8625 55.0187 69.2781 52.575C67.9906 51.7281 67.275 50.2969 67.275 48.5875C67.275 45.5781 69.15 44.0125 70.8594 44.0125C72.2937 44.0125 73.4312 45.0094 73.4312 47.0094C73.4312 48.2969 73.0063 49.7312 72.2938 51.0125H72.7156C73.6281 51.0469 74.525 50.6719 75.1406 50.0219C75.2875 49.7937 75.4813 49.6312 75.7125 49.5344C77.1125 47.7594 79.1625 46.4438 81.5875 46.4438C83.5875 46.4438 85.4281 47.3062 85.575 48.8687C85.8656 51.0156 83.9969 51.4406 83.425 51.4406C82.8594 51.4406 81.85 51.2938 81.85 50.725C81.85 50.1563 83.1344 50.4344 83.0031 49.1625C82.8563 48.3 81.9937 48.0094 81.1312 48.0094C78.2812 48.0094 76.4281 51.7187 76.8469 54.7312C76.9937 55.8687 77.5625 57.1563 78.7063 57.1563C79.5688 57.1563 80.8531 55.8687 81.4219 54.0156C81.6969 52.8781 82.8562 51.8656 83.8469 51.8656C84.2844 51.8656 84.5625 52.0125 84.7094 52.5813C84.7094 52.8781 84.7094 53.4438 84.1375 55.3031C83.4219 56.5875 83.4219 57.3031 83.5719 57.875C83.7 59.0125 84.2719 59.875 84.8562 60.3C84.9844 60.4469 85.1344 60.7219 85.1344 60.7219C85.1344 61.0187 84.9844 61.3094 84.5625 61.3094C84.4156 61.3094 84.2844 61.3094 84.1375 61.1625C81.9906 60.3 81.1281 58.8656 80.85 57.4344C79.9875 58.4437 78.9969 59.0125 77.8406 59.0125C75.9813 59.0125 74.1437 57.3031 73.8531 55.1531C73.7687 54.2438 73.8656 53.3156 74.1625 52.4531C73.3156 52.9906 72.4031 53.3 71.5594 53.3H70.8594C68.9875 56.0156 66.9844 57.875 65.5688 58.7219C65.0813 58.9813 64.5437 59.1312 63.9906 59.1594C63.7156 59.1594 63.2781 59.0125 63.1437 58.7219C62.7406 58.0875 62.4937 57.0938 62.3312 55.9563C60.3281 58.1344 57.5594 59.3063 56.2781 59.3063C54.8438 59.3063 54 58.4438 53.8531 57.0156V55.4531C54.275 52.3125 55.4313 50.4406 55.4313 49.8688C55.4156 49.7219 55.2969 49.5906 55.1344 49.5781C54.1437 49.5781 50.8562 53.0125 50.2844 55.3062L49.8469 57.1594C49.5688 58.4438 48.2844 59.3063 47.4219 59.3063C46.9969 59.3063 46.7063 59.1594 46.575 58.5938V58.0219L46.7531 57.0469C44.9438 58.3312 43.1375 59.1594 42.275 59.1594C40.9906 59.1594 40.275 58.4437 40.1469 57.4344C39.2844 58.5937 38.2875 59.1594 37.0063 59.1594C35.5219 59.1594 34.0937 58.15 33.4094 56.6875C32.3812 57.8406 31.225 58.9969 29.8594 59.875C27.8594 61.1625 25.5813 62.1531 22.8594 62.1531C20.4344 62.1531 18.2875 60.8656 17.1469 59.7281C15.4219 58.15 14.4313 55.725 14.2844 53.4437C13.4375 46.4469 17.7188 37.4438 24.275 33.4406C25.8531 32.5781 27.4344 32.0125 28.9969 32.0125L29.0031 32ZM69.7094 45.7219C69.2875 45.7219 68.9969 46.4375 68.9969 47.1344C68.9969 48.2938 69.5625 49.575 70.2812 50.2937C70.5781 49.5156 70.7063 48.6844 70.7219 47.8531C70.7219 46.4406 70.15 45.725 69.7094 45.725V45.7219Z" fill="#101010"/>
</g>
<defs>
<clipPath id="clip0_115_100">
<rect width="100" height="100" fill="white"/>
</clipPath>
</defs>
</svg>
