<svg width="500" height="500" viewBox="0 0 500 500" fill="none" xmlns="http://www.w3.org/2000/svg">
<circle cx="250" cy="250" r="230" fill="white"/>
<g clip-path="url(#clip0_343_11)">
<path d="M250 0C111.891 0 0 111.891 0 250C0 388.109 111.891 500 250 500C388.109 500 500 388.109 500 250C500 111.891 388.109 0 250 0ZM145.016 160C160.719 160 172.938 171.453 174.313 184.984C175.797 197.187 170.734 207.859 157.234 214.281C150.062 217.859 147.219 217.859 145.75 215.734C145.016 214.281 145.75 212.906 147.203 211.422C160.078 200.781 160.078 192.156 158.594 180.031C157.859 172.141 152.172 167.156 146.469 167.156C121.406 167.156 85.7656 222.828 90.7188 263.594C92.9219 279.297 102.203 297.859 122.141 297.859C128.578 297.859 135.75 295.734 142.156 292.906C152.578 287.359 158.844 283.141 165.031 276.219C163.484 257.734 179.672 233.578 203.594 233.578C214.344 233.578 222.891 237.891 223.609 245.781C225 256.453 215.719 257.906 212.875 257.906C210.016 257.906 204.984 257.172 204.984 254.328C204.344 251.469 211.406 252.875 210.75 246.438C210.016 242.125 205.703 240.75 201.484 240.75C186.422 240.75 177.875 261.5 180 274.266C180.734 280.031 183.563 285.75 189.359 285.75C193.594 285.75 200.031 279.313 202.125 270.047C203.578 263.609 209.297 259.297 214.328 259.297C216.453 259.297 217.828 260.031 218.562 262.875V265.734C217.922 268.594 215.703 277.219 216.453 279.312C216.453 280.797 217.188 282.891 220.016 282.891C221.891 282.891 229.063 279.141 236.219 273.281C238.578 260.984 241.422 246.266 241.422 245.047C242.156 240 244.281 235.031 254.281 235.031C256.469 235.031 257.859 235.766 258.594 238.609V241.469L255.734 254.328C265.031 242.203 278.609 233.656 287.156 233.656C290.734 233.656 293.594 235.766 293.594 239.344C293.594 241.469 293.594 245.047 292.109 248.641C289.281 256.453 285.688 268.656 283.563 279.312C283.563 282.172 284.297 285.016 287.875 285.016C291.453 285.016 302.125 280.781 310.672 269.313L310.844 269.234C310.844 267.844 310.672 266.469 310.672 265.094C310.672 256.469 311.406 249.391 312.875 244.344C314.328 238.641 321.422 233.672 325.734 233.672C327.844 233.672 330.047 235.047 330.047 237.172C330.047 237.906 330.047 239.359 329.313 240.031C326.453 249.391 324.25 257.922 324.25 266.469C324.25 271.516 325 278.594 326.453 282.906C326.453 283.641 327.094 284.359 327.828 284.359C329.313 284.359 339.313 275.094 346.391 262.875C339.953 258.641 336.375 251.484 336.375 242.938C336.375 227.891 345.75 220.062 354.297 220.062C361.469 220.062 367.156 225.047 367.156 235.047C367.156 241.484 365.031 248.656 361.469 255.062H363.578C368.141 255.234 372.625 253.359 375.703 250.109C376.438 248.969 377.406 248.156 378.563 247.672C385.563 238.797 395.812 232.219 407.937 232.219C417.937 232.219 427.141 236.531 427.875 244.344C429.328 255.078 419.984 257.203 417.125 257.203C414.297 257.203 409.25 256.469 409.25 253.625C409.25 250.781 415.672 252.172 415.016 245.813C414.281 241.5 409.969 240.047 405.656 240.047C391.406 240.047 382.141 258.594 384.234 273.656C384.969 279.344 387.813 285.781 393.531 285.781C397.844 285.781 404.266 279.344 407.109 270.078C408.484 264.391 414.281 259.328 419.234 259.328C421.422 259.328 422.813 260.063 423.547 262.906C423.547 264.391 423.547 267.219 420.687 276.516C417.109 282.938 417.109 286.516 417.859 289.375C418.5 295.063 421.359 299.375 424.281 301.5C424.922 302.234 425.672 303.609 425.672 303.609C425.672 305.094 424.922 306.547 422.812 306.547C422.078 306.547 421.422 306.547 420.687 305.813C409.953 301.5 405.641 294.328 404.25 287.172C399.937 292.219 394.984 295.063 389.203 295.063C379.906 295.063 370.719 286.516 369.266 275.766C368.844 271.219 369.328 266.578 370.813 262.266C366.578 264.953 362.016 266.5 357.797 266.5H354.297C344.937 280.078 334.922 289.375 327.844 293.609C325.406 294.906 322.719 295.656 319.953 295.797C318.578 295.797 316.391 295.063 315.719 293.609C313.703 290.438 312.469 285.469 311.656 279.781C301.641 290.672 287.797 296.531 281.391 296.531C274.219 296.531 270 292.219 269.266 285.078V277.266C271.375 261.563 277.156 252.203 277.156 249.344C277.078 248.609 276.484 247.953 275.672 247.891C270.719 247.891 254.281 265.062 251.422 276.531L249.234 285.797C247.844 292.219 241.422 296.531 237.109 296.531C234.984 296.531 233.531 295.797 232.875 292.969V290.109L233.766 285.234C224.719 291.656 215.687 295.797 211.375 295.797C204.953 295.797 201.375 292.219 200.734 287.172C196.422 292.969 191.438 295.797 185.031 295.797C177.609 295.797 170.469 290.75 167.047 283.437C161.906 289.203 156.125 294.984 149.297 299.375C139.297 305.812 127.906 310.766 114.297 310.766C102.172 310.766 91.4375 304.328 85.7344 298.641C77.1094 290.75 72.1563 278.625 71.4219 267.219C67.1875 232.234 88.5938 187.219 121.375 167.203C129.266 162.891 137.172 160.063 144.984 160.063L145.016 160ZM348.547 228.609C346.437 228.609 344.984 232.188 344.984 235.672C344.984 241.469 347.812 247.875 351.406 251.469C352.891 247.578 353.531 243.422 353.609 239.266C353.609 232.203 350.75 228.625 348.547 228.625V228.609Z" fill="#101010"/>
</g>
<defs>
<clipPath id="clip0_343_11">
<rect width="500" height="500" fill="white"/>
</clipPath>
</defs>
</svg>
