<svg width="200" height="200" viewBox="0 0 200 200" fill="none" xmlns="http://www.w3.org/2000/svg">
<ellipse cx="100" cy="100" rx="96.1538" ry="98.7" fill="#F1F1F1"/>
<g clip-path="url(#clip0_343_4)">
<path fill-rule="evenodd" clip-rule="evenodd" d="M100 0C155.23 0 200 45.8993 200 102.529C200 147.819 171.38 186.24 131.67 199.81C126.6 200.82 124.8 197.618 124.8 194.888C124.8 191.508 124.92 180.468 124.92 166.748C124.92 157.188 121.72 150.949 118.13 147.769C140.4 145.229 163.8 136.558 163.8 97.1777C163.8 85.9777 159.92 76.8382 153.5 69.6582C154.54 67.0682 157.97 56.6395 152.52 42.5195C152.52 42.5195 144.14 39.7722 125.05 53.0322C117.06 50.7622 108.5 49.6201 100 49.5801C91.5 49.6201 82.95 50.7622 74.97 53.0322C55.86 39.7722 47.46 42.5195 47.46 42.5195C42.03 56.6395 45.46 67.0682 46.49 69.6582C40.1 76.8382 36.19 85.9777 36.19 97.1777C36.19 136.458 59.54 145.262 81.75 147.852C78.89 150.412 76.3 154.928 75.4 161.558C69.7 164.178 55.22 168.712 46.3 153.042C46.3 153.042 41.01 143.191 30.97 142.471C30.97 142.471 21.22 142.341 30.29 148.701C30.29 148.701 36.84 151.851 41.39 163.701C41.39 163.701 47.26 182.001 75.08 175.801C75.13 184.371 75.22 192.448 75.22 194.888C75.22 197.598 73.38 200.769 68.39 199.819C28.65 186.269 0 147.829 0 102.529C0 45.8993 44.78 0 100 0Z" fill="#101010"/>
</g>
<defs>
<clipPath id="clip0_343_4">
<rect width="200" height="200" fill="white"/>
</clipPath>
</defs>
</svg>
