<svg width="69" height="69" viewBox="0 0 69 69" fill="none" xmlns="http://www.w3.org/2000/svg">
<g clip-path="url(#clip0_115_108)">
<path d="M58.65 0H10.35C4.63385 0 0 4.63385 0 10.35V58.65C0 64.3661 4.63385 69 10.35 69H58.65C64.3661 69 69 64.3661 69 58.65V10.35C69 4.63385 64.3661 0 58.65 0Z" fill="#0079BF"/>
<path d="M52.9629 12.8027H41.373C39.6612 12.8027 38.2734 14.1905 38.2734 15.9023V35.0391C38.2734 36.7509 39.6612 38.1387 41.373 38.1387H52.9629C54.6748 38.1387 56.0625 36.7509 56.0625 35.0391V15.9023C56.0625 14.1905 54.6748 12.8027 52.9629 12.8027Z" fill="#F1F1F1"/>
<path d="M27.7617 12.8027H16.1719C14.46 12.8027 13.0723 14.1905 13.0723 15.9023V49.5938C13.0723 51.3056 14.46 52.6934 16.1719 52.6934H27.7617C29.4736 52.6934 30.8613 51.3056 30.8613 49.5938V15.9023C30.8613 14.1905 29.4736 12.8027 27.7617 12.8027Z" fill="#F1F1F1"/>
</g>
<defs>
<clipPath id="clip0_115_108">
<rect width="69" height="69" fill="white"/>
</clipPath>
</defs>
</svg>
