<svg width="82" height="92" viewBox="0 0 82 92" fill="none" xmlns="http://www.w3.org/2000/svg">
<g clip-path="url(#clip0_115_56)">
<path d="M81.6356 27.2344C81.6349 25.7027 81.3064 24.3492 80.6421 23.1879C79.9895 22.0453 79.0122 21.0879 77.7014 20.331C66.8809 14.1093 56.0498 7.90671 45.2328 1.67872C42.3166 -0.000127431 39.4891 0.0613946 36.5945 1.76435C32.2876 4.29689 10.7245 16.6162 4.29896 20.3275C1.65274 21.8554 0.365091 24.1932 0.364455 27.2316C0.360321 39.7437 0.364455 52.2558 0.360321 64.7679C0.360321 66.2659 0.675476 67.5934 1.31056 68.7373C1.96344 69.9141 2.95438 70.8978 4.29546 71.6719C10.7213 75.3832 32.2873 87.7016 36.5932 90.2351C39.4891 91.939 42.3166 91.9999 45.2338 90.3207C56.0511 84.0924 66.8828 77.8898 77.7049 71.6681C79.046 70.8944 80.0369 69.91 80.6898 68.7341C81.3239 67.5899 81.6397 66.2628 81.6397 64.7644C81.6397 64.7644 81.6397 39.7468 81.6356 27.2344Z" fill="#A179DC"/>
<path d="M41.1243 45.8778L1.31055 68.7373C1.96344 69.9142 2.95438 70.8979 4.29545 71.672C10.7213 75.3833 32.2873 87.7016 36.5932 90.2351C39.4891 91.939 42.3166 91.9999 45.2338 90.3207C56.0511 84.0924 66.8828 77.8898 77.7049 71.6682C79.0459 70.8944 80.0369 69.91 80.6898 68.7342L41.1243 45.8778Z" fill="#280068"/>
<path d="M81.6356 27.2345C81.6349 25.7028 81.3064 24.3493 80.6421 23.188L41.1244 45.8782L80.6898 68.7342C81.3239 67.59 81.6391 66.2628 81.6397 64.7644C81.6397 64.7644 81.6397 39.7469 81.6356 27.2345Z" fill="#390091"/>
<path d="M64.5654 37.3323V41.6052H68.8503V37.3323H70.9928V41.6052H75.2778V43.7417H70.9928V48.0143H75.2778V50.1507H70.9928V54.4236H68.8503V50.1507H64.5654V54.4236H62.4229V50.1507H58.1382V48.0143H62.4229V43.7417H58.1382V41.6052H62.4229V37.3323H64.5654ZM68.8503 43.7413H64.5654V48.0143H68.8503V43.7413Z" fill="white"/>
<path d="M41.2118 15.8731C52.3882 15.8731 62.1459 21.9257 67.3725 30.9225L67.3216 30.8359L54.1716 38.386C51.581 34.0119 46.8318 31.0598 41.3832 30.9989L41.2115 30.998C32.9033 30.998 26.1677 37.7147 26.1677 45.9995C26.165 48.6108 26.8491 51.1771 28.1518 53.4424C30.7449 57.9566 35.6198 61.0013 41.2118 61.0013C46.8385 61.0013 51.741 57.918 54.3208 53.3555L54.2581 53.4649L67.3881 61.0499C62.2187 69.9705 52.5946 76.0044 41.5483 76.1246L41.2118 76.1265C30.0001 76.1265 20.2147 70.0365 15.0012 60.9921C12.4561 56.5768 10.9999 51.4582 10.9999 45.9995C10.9999 29.3613 24.5258 15.8728 41.2115 15.8728L41.2118 15.8731Z" fill="white"/>
</g>
<defs>
<clipPath id="clip0_115_56">
<rect width="82" height="92" fill="white"/>
</clipPath>
</defs>
</svg>
