<svg width="100" height="99" viewBox="0 0 100 99" fill="none" xmlns="http://www.w3.org/2000/svg">
<g clip-path="url(#clip0_115_63)">
<path d="M41.497 98.4477C21.9789 94.9225 6.29462 79.9495 1.99598 60.7144C0.752864 55.2464 0.656048 44.1552 1.80351 38.9587C3.89474 29.4963 8.27084 21.3524 14.8156 14.721C21.7477 7.66299 29.2606 3.43593 39.4069 0.837654C42.2378 0.116341 43.783 0 50.444 0C57.1049 0 58.654 0.117116 61.481 0.837654C81.0379 5.80153 94.902 19.8788 99.1232 38.9587C99.8706 42.3636 100.018 44.1165 99.9984 49.6233C99.9811 55.324 99.8404 56.7976 98.9721 60.5205C95.5642 75.1019 85.9988 87.3177 72.793 93.9879C69.3851 95.7098 63.1114 97.7496 59.0451 98.4477C54.7465 99.1961 45.8007 99.1806 41.5795 98.4213L41.497 98.4477Z" fill="#F1F1F1"/>
<path d="M46.5727 87.8159C37.7764 85.6194 29.9489 77.5292 22.3152 62.7952C11.4264 41.7577 10.0314 22.5765 18.9555 16.7757C22.0129 14.8885 26.473 14.9581 30.4255 16.947C32.6188 18.053 33.2427 18.7491 34.4943 21.4716C36.0327 24.8245 36.6333 28.6646 36.8929 36.7857L37.1324 44.2494L38.3646 41.4302C39.0428 39.8794 40.4106 37.215 41.4065 35.4747C42.4024 33.7538 43.22 31.8744 43.22 31.2982C43.22 30.7258 42.786 29.2292 42.2513 27.9646C41.2593 25.6134 41.1004 24.3372 41.5228 22.2025C41.7646 20.996 41.7673 20.9921 44.3321 20.9921L46.8974 20.9906L48.4978 18.9256C50.3035 16.5898 53.8065 13.7435 56.829 12.1967C58.5805 11.2917 59.3284 11.1448 62.1765 11.1448C65.1138 11.1448 65.695 11.2681 67.369 12.2431C68.3998 12.8463 69.1593 13.4225 69.0585 13.5231C68.9578 13.6236 67.8689 13.4125 66.6328 13.0552C63.556 12.1618 60.4715 12.4828 57.3328 14.022C49.8928 17.6726 42.3365 31.4243 45.2815 35.9102C45.6806 36.5213 46.6533 37.0665 48.056 37.4726C50.3345 38.1339 51.435 37.9599 49.5324 37.2375C45.5411 35.7254 46.3665 32.1328 52.2061 25.5972L55.5348 21.8731L55.3143 19.7423C55.1147 17.8126 55.1759 17.5651 55.9653 17.1436C57.0503 16.5635 58.8211 16.891 60.1115 17.9131C61.336 18.8761 65.149 18.965 68.3653 18.11C69.5355 17.796 71.5815 17.5376 72.899 17.5338C75.1543 17.5295 75.3286 17.5937 75.5573 18.4967C75.691 19.0265 75.7018 19.7187 75.5813 20.032C75.4608 20.3452 75.7278 21.4241 76.1742 22.4335C77.1778 24.6997 77.5537 30.0518 76.9143 32.9909C76.6671 34.1433 75.775 36.5023 74.9303 38.2503C72.8184 42.5815 72.737 43.239 73.9499 46.1007C76.0308 51.012 77.5498 60.4093 77.1584 65.862C77.0426 67.4669 76.4842 71.044 75.9145 73.7897C74.8295 79.0878 74.9148 80.944 76.302 82.1042C76.6206 82.3683 76.8833 83.1406 76.8833 83.8212C76.8833 85.2598 75.7983 86.4161 73.822 87.0735C71.9698 87.6923 67.9708 87.6227 66.0333 86.9339C63.7199 86.1179 61.8095 86.2108 60.2208 87.2135C59.0273 87.9676 58.2639 88.0798 53.827 88.1648C50.4054 88.229 48.0533 88.0782 46.5033 87.693L46.5727 87.8159ZM40.6827 74.2034C37.2378 64.1101 38.3073 52.7792 43.8175 40.9843L45.476 37.442L43.7013 35.9028L42.1474 39.2518C35.8312 52.8643 34.8624 64.8526 39.3884 73.7858C40.5858 76.1525 41.6708 78.001 41.8723 78.001C41.9258 78.001 41.3918 76.3033 40.6865 74.2305L40.6827 74.2034ZM70.3264 40.3656L71.1402 38.3353L70.9635 40.0252C70.8631 40.9882 70.9325 41.5721 71.1247 41.3788C71.4416 41.0624 73.438 36.0807 73.438 35.578C73.438 35.4577 72.911 35.803 72.2639 36.3437C71.0665 37.3491 68.9159 38.1264 67.3039 38.1303C66.4902 38.1323 66.4359 38.2576 66.6607 39.5844C67.1024 42.2025 67.2187 42.3881 68.3889 42.3881C69.3654 42.3881 69.5979 42.1448 70.3148 40.3578L70.3264 40.3656Z" fill="#FCFBFB"/>
<path d="M46.5727 87.8161C37.7764 85.6195 29.9489 77.5293 22.3152 62.7954C13.9839 46.6692 11.1164 31.7419 14.5652 22.5766C17.0452 15.9637 23.6714 13.6821 30.4527 17.0852C32.6459 18.1912 33.2698 18.8873 34.5214 21.6098C36.0598 24.9627 36.6604 28.8028 36.92 36.9239L37.1595 44.3876L38.3918 41.5684C39.0699 40.0176 40.4378 37.3531 41.4336 35.6129C42.4295 33.892 43.2471 32.0126 43.2471 31.4363C43.2471 30.864 42.8131 29.3674 42.2784 28.1028C41.2864 25.7516 41.1275 24.4754 41.5499 22.3407C41.7917 21.1342 41.7944 21.1303 44.3593 21.1303L46.9245 21.1288L48.5249 19.0637C50.3306 16.728 53.8336 13.8817 56.8561 12.3348C58.6076 11.4299 59.3555 11.283 62.2036 11.283C65.1409 11.283 65.7221 11.4063 67.3961 12.3812C68.4269 12.9845 69.1864 13.5607 69.0856 13.6613C68.9849 13.7618 67.896 13.5507 66.6599 13.1933C63.5831 12.3 60.4986 12.621 57.3599 14.1601C49.9199 17.8108 42.3636 31.5625 45.3086 36.0484C45.7078 36.6594 46.6804 37.2047 48.0831 37.6108C50.3616 38.2721 51.4621 38.098 49.5595 37.3756C45.5683 35.8636 46.3936 32.271 52.2333 25.7354L55.5619 22.0113L55.3414 19.8805C55.1418 17.9508 55.2031 17.7033 55.9924 17.2817C57.0774 16.7017 58.8483 17.0292 60.1386 18.0513C61.3631 19.0142 65.1761 19.1032 68.3924 18.2482C69.5626 17.9341 71.6086 17.6758 72.9261 17.6719C75.1814 17.6676 75.3558 17.7319 75.5844 18.6349C75.7181 19.1647 75.7289 19.8569 75.6084 20.1701C75.4879 20.4834 75.7549 21.5623 76.2013 22.5717C77.2049 24.8378 77.5808 30.19 76.9414 33.1291C76.6942 34.2815 75.8022 36.6405 74.9574 38.3885C72.8455 42.7197 72.7642 43.3771 73.977 46.2389C76.0579 51.1502 77.5769 60.5474 77.1855 66.0002C77.0697 67.6051 76.5113 71.1822 75.9417 73.9279C74.8567 79.226 74.9419 81.0822 76.3292 82.2424C76.6477 82.5065 76.9104 83.2788 76.9104 83.9594C76.9104 85.398 75.8254 86.5543 73.8492 87.2117C71.9969 87.8305 67.9979 87.7608 66.0604 87.0721C63.747 86.2561 61.8367 86.3489 60.2479 87.3517C59.0544 88.1058 58.291 88.2179 53.8542 88.303C50.4325 88.3672 48.0804 88.2164 46.5304 87.8312L46.5727 87.8161ZM40.6827 74.2036C37.2378 64.1102 38.3073 52.7794 43.8175 40.9844L45.476 37.4421L43.7013 35.9029L42.1474 39.2519C35.8312 52.8644 34.8624 64.8527 39.3884 73.7859C40.5858 76.1526 41.6708 78.0011 41.8723 78.0011C41.9258 78.0011 41.3918 76.3034 40.6865 74.2306L40.6827 74.2036ZM70.3264 40.3657L71.1402 38.3354L70.9635 40.0254C70.8631 40.9883 70.9325 41.5722 71.1247 41.3789C71.4416 41.0625 73.438 36.0808 73.438 35.5781C73.438 35.4578 72.911 35.8032 72.2639 36.3438C71.0665 37.3493 68.9159 38.1266 67.3039 38.1304C66.4902 38.1324 66.4359 38.2577 66.6607 39.5845C67.1024 42.2026 67.2187 42.3882 68.3889 42.3882C69.3654 42.3882 69.5979 42.145 70.3148 40.3579L70.3264 40.3657Z" fill="#FBFBFB"/>
<path d="M46.5727 87.816C41.7677 86.6133 36.0714 82.75 32.0027 77.916C25.1827 69.8336 17.8977 55.409 14.8752 44.1168C13.7902 40.0176 13.6197 38.7028 13.4569 33.018C13.2938 27.2559 13.3612 26.2891 14.0808 23.8914C15.0573 20.6778 16.1384 19.0188 18.3045 17.3559C21.4394 14.9698 26.0933 14.8422 30.4333 17.0237C32.6265 18.1297 33.2504 18.8258 34.502 21.5483C36.0404 24.9011 36.641 28.7413 36.9007 36.8624L37.1401 44.326L38.3724 41.5068C39.0505 39.9561 40.4184 37.2916 41.4143 35.5514C42.4101 33.8305 43.2278 31.951 43.2278 31.3748C43.2278 30.8025 42.7938 29.3059 42.259 28.0413C41.267 25.6901 41.1081 24.4139 41.5305 22.2792C41.7723 21.0726 41.775 21.0688 44.3399 21.0688L46.9051 21.0673L48.5055 19.0022C50.3113 16.6664 53.8143 13.8202 56.8368 12.2733C58.5883 11.3684 59.3361 11.2214 62.1843 11.2214C65.1215 11.2214 65.7028 11.3448 67.3768 12.3197C68.4075 12.923 69.167 13.4992 69.0663 13.5998C68.9655 13.7003 67.8766 13.4892 66.6405 13.1318C63.5638 12.2385 60.4793 12.5595 57.3405 14.0986C49.9005 17.7492 42.3443 31.501 45.2893 35.9869C45.6884 36.5979 46.661 37.1432 48.0638 37.5492C50.3423 38.2105 51.4428 38.0365 49.5401 37.3141C45.5489 35.8021 46.3743 32.2094 52.2139 25.6739L55.5425 21.9498L55.322 19.819C55.1225 17.8892 55.1837 17.6417 55.973 17.2202C57.058 16.6401 58.8289 16.9677 60.1193 17.9898C61.3438 18.9527 65.1568 19.0417 68.373 18.1866C69.5433 17.8726 71.5893 17.6143 72.9068 17.6104C75.162 17.6061 75.3364 17.6704 75.565 18.5733C75.6987 19.1032 75.7096 19.7954 75.589 20.1086C75.4685 20.4219 75.7355 21.5008 76.1819 22.5101C77.1855 24.7763 77.5614 30.1285 76.922 33.0676C76.6748 34.22 75.7828 36.579 74.938 38.3269C72.8262 42.6582 72.7448 43.3156 73.9577 46.1773C76.0385 51.0887 77.5575 60.4859 77.1662 65.9387C77.0503 67.5435 76.4919 71.1207 75.9223 73.8664C74.8373 79.1644 74.9225 81.0207 76.3098 82.1809C76.6283 82.445 76.891 83.2173 76.891 83.8979C76.891 85.3365 75.806 86.4928 73.8298 87.1502C71.9775 87.7689 67.9785 87.6993 66.041 87.0106C63.7277 86.1946 61.8173 86.2874 60.2285 87.2902C59.035 88.0443 58.2717 88.1564 53.8348 88.2415C50.4132 88.3057 48.061 88.1549 46.511 87.7697L46.5727 87.816ZM40.6827 74.2035C37.2378 64.1102 38.3073 52.7793 43.8175 40.9844L45.476 37.442L43.7013 35.9029L42.1474 39.2519C35.8312 52.8644 34.8624 64.8527 39.3884 73.7859C40.5858 76.1526 41.6708 78.0011 41.8723 78.0011C41.9258 78.0011 41.3918 76.3034 40.6865 74.2306L40.6827 74.2035ZM70.3264 40.3656L71.1402 38.3354L70.9635 40.0253C70.8631 40.9883 70.9325 41.5722 71.1247 41.3788C71.4416 41.0625 73.438 36.0808 73.438 35.5781C73.438 35.4578 72.911 35.8031 72.2639 36.3438C71.0665 37.3492 68.9159 38.1265 67.3039 38.1304C66.4902 38.1324 66.4359 38.2576 66.6607 39.5845C67.1024 42.2026 67.2187 42.3882 68.3889 42.3882C69.3654 42.3882 69.5979 42.1449 70.3148 40.3579L70.3264 40.3656Z" fill="#A08470"/>
<path d="M46.5727 87.8159C37.8927 85.4415 29.9489 76.9491 22.4702 62.0991C16.1539 49.5695 13.4802 39.5921 13.9064 30.4269C14.2575 22.9245 16.3787 18.7866 20.8427 16.8531C23.3459 15.778 26.9264 15.9211 29.8714 17.2135C33.293 18.7062 34.5214 20.431 35.9552 25.6826C36.6217 28.146 36.7883 30.2072 36.951 37.7482L37.1475 46.8361L37.814 44.9025C38.5464 42.7833 41.2627 37.2455 42.6577 35.0799C43.9636 33.0148 44.0721 30.9807 42.9972 28.6603C42.4237 27.4306 42.0943 25.9997 42.0943 24.7158C42.0884 21.6066 42.1904 21.4983 45.1362 21.4712L47.7092 21.4492L49.1662 19.5388C50.9564 17.1953 54.3199 14.5115 57.3812 12.9646C59.3381 11.9823 60.1014 11.816 62.6124 11.8315C65.0111 11.8458 65.8752 12.028 67.3012 12.8215C68.2622 13.3552 68.6962 13.6839 68.2699 13.5485C62.7674 11.816 57.9237 13.1038 53.2349 17.5704C47.4224 23.0618 43.4699 32.4204 45.4074 36.0942C46.1476 37.5251 45.9809 37.6643 44.9076 36.5119L44.1481 35.6959L43.3924 37.1887C41.7029 40.5222 39.0137 47.8234 38.0062 51.8453C37.0839 55.5269 36.9406 56.8726 36.9444 61.7066C36.9516 66.734 37.0588 67.6234 37.9868 70.4078C39.2307 74.1358 42.3656 79.4183 43.9156 80.3465C44.1368 80.4807 43.8928 78.993 43.3731 77.04C42.2493 72.8248 41.9936 65.5932 42.8809 63.0795L43.4118 61.579L44.6053 63.6596C46.6474 67.2251 52.5491 72.4767 55.2616 73.1728C57.2843 73.6794 57.2378 71.042 55.1186 65.3611C53.2896 60.4498 52.9253 58.5935 52.9098 53.9529C52.8957 49.351 53.4717 47.2627 56.1028 42.506C57.9008 39.2383 58.0287 37.8267 56.8817 34.1916C56.4593 32.8419 56.1106 31.5155 56.1067 31.2448C56.104 30.9722 57.0173 31.4316 58.1372 32.2657C60.997 34.4004 64.7635 36.2103 66.8947 36.4423C68.4757 36.6291 68.8787 36.5216 69.9405 35.6302C71.2618 34.5203 72.7576 31.1056 72.7576 29.2107C72.7576 28.5803 72.9242 28.066 73.1276 28.066C73.6314 28.066 74.0344 30.4172 73.8561 32.2812L73.7085 33.8242L74.7819 32.7955C75.3748 32.2309 76.2079 30.8851 76.6419 29.8101L77.4246 27.8533L77.2964 31.152C77.1805 34.1374 76.9953 34.8181 75.3511 38.3449C74.239 40.7194 73.5337 42.7535 73.5337 43.6043C73.5337 44.3739 74.0569 46.3075 74.6962 47.8969C77.4204 54.7032 78.145 65.1832 76.44 73.0723C75.1496 79.0278 75.1651 81 76.5028 82.5856C77.3475 83.5872 77.4715 83.9894 77.1809 84.7976C76.6423 86.3097 75.1 87.2223 72.2596 87.7057C69.9308 88.104 69.4154 88.0638 67.0284 87.2958C63.661 86.213 62.8822 86.2285 60.6734 87.4114C58.9839 88.3086 58.4879 88.3744 53.6984 88.3434C50.6759 88.3232 47.7696 88.0924 46.6459 87.7866L46.5727 87.8159ZM69.6677 42.5699C70.0017 42.3038 70.4775 41.7384 70.7294 41.313C71.1595 40.5782 71.1712 40.5821 70.9452 41.4097C70.5887 42.7091 71.418 42.4693 72.1465 41.0566C73.0416 39.328 74.2855 35.6039 74.0491 35.3719C73.9398 35.2628 73.371 35.6282 72.7897 36.184C71.4877 37.4215 69.9881 38.017 68.1785 38.017H66.799L66.9838 39.939C67.2504 42.7079 68.2626 43.6902 69.6808 42.561L69.6677 42.5699ZM69.0167 25.1288C65.1029 23.2919 64.1729 20.7202 66.8854 19.4054C68.6563 18.543 73.3954 17.7386 74.7517 18.079C75.6817 18.3121 75.8095 18.5275 75.8095 19.8965C75.8095 22.5572 73.407 26.084 71.5858 26.0454C71.2417 26.0434 70.0862 25.6316 69.0205 25.1288H69.0167ZM55.8029 22.8588C56.2602 22.155 56.2873 21.6832 55.9335 20.3761C55.1236 17.379 56.9875 16.7138 60.816 18.6358L62.9899 19.7302L60.9439 20.3722C59.8201 20.726 58.1849 21.6252 57.313 22.3715C55.4762 23.9416 55.0112 24.0924 55.8134 22.8588H55.8029Z" fill="#45352F"/>
</g>
<defs>
<clipPath id="clip0_115_63">
<rect width="100" height="99" fill="white"/>
</clipPath>
</defs>
</svg>
