<svg width="101" height="103" viewBox="0 0 101 103" fill="none" xmlns="http://www.w3.org/2000/svg">
<g clip-path="url(#clip0_115_33)">
<path d="M101 -0.00012207H0V103H101V-0.00012207Z" fill="#F1F1F1"/>
<path d="M18.0014 65.8054C17.2873 65.8054 16.6803 65.5628 16.1804 65.0774C15.6805 64.5795 15.4305 63.9884 15.4305 63.304C15.4305 62.6069 15.6805 62.0097 16.1804 61.5119C16.6803 61.0141 17.2873 60.7651 18.0014 60.7651C18.7275 60.7651 19.3405 61.0141 19.8404 61.5119C20.3522 62.0097 20.6081 62.6069 20.6081 63.304C20.6081 63.9884 20.3522 64.5795 19.8404 65.0774C19.3405 65.5628 18.7275 65.8054 18.0014 65.8054Z" fill="#101010"/>
<path d="M46.5502 65.3947H41.9081L29.6785 45.7188C29.3691 45.2209 29.113 44.7044 28.9108 44.1693H28.8036C28.8989 44.7419 28.9465 45.9677 28.9465 47.8468V65.3947H24.84V38.6249H29.7855L41.6047 57.8341C42.1046 58.6308 42.426 59.1783 42.5689 59.477H42.6402C42.5212 58.7677 42.4616 57.5667 42.4616 55.874V38.6249H46.5502V65.3947Z" fill="#101010"/>
<path d="M66.5468 65.3947H52.1747V38.6249H65.9756V42.3959H56.424V49.975H65.2258V53.7272H56.424V61.6424H66.5468V65.3947Z" fill="#101010"/>
<path d="M86.9723 42.3959H79.6166V65.3947H75.3673V42.3959H68.0295V38.6249H86.9723V42.3959Z" fill="#101010"/>
</g>
<defs>
<clipPath id="clip0_115_33">
<rect y="-0.00012207" width="101" height="103" rx="50.5" fill="white"/>
</clipPath>
</defs>
</svg>
