<svg width="83" height="49" viewBox="0 0 83 49" fill="none" xmlns="http://www.w3.org/2000/svg">
<g clip-path="url(#clip0_115_49)">
<path d="M33.8488 32.3741C32.545 38.5237 30.826 42.9977 28.6917 45.7772C27.0286 47.9257 25.2069 48.9999 23.2233 48.9999C22.694 48.9999 22.0427 48.8614 21.2681 48.5865V47.1027C21.6457 47.1522 22.0894 47.1769 22.5993 47.1769C23.5244 47.1769 24.2704 46.9553 24.8385 46.5112C25.5183 45.9701 25.8583 45.3628 25.8583 44.6892C25.8583 44.2292 25.5925 43.2846 25.0644 41.8562L21.551 32.3702H24.6959L27.2168 39.4654C27.7838 41.0758 28.0199 42.2004 27.9252 42.8414C29.3054 39.6385 30.2682 36.1488 30.8157 32.3761H33.8477M19.9655 44.6417H16.7647C16.6518 39.9432 16.3404 35.5266 15.8293 31.387H15.8031L10.9289 44.6417H8.49012L3.6456 31.387H3.61709C3.25777 35.3614 3.03191 39.778 2.93724 44.6417H0.0182076C0.206422 38.7285 0.679808 33.1872 1.4338 28.0139H5.40113L10.0198 40.23H10.0483L14.6955 28.0139H18.4917C19.3221 34.0735 19.8138 39.6168 19.9632 44.6417" fill="#00758F"/>
<path d="M76.465 44.6397H67.3703V28.012H70.4308V42.5922H76.465V44.6378M53.5942 41.3112C52.8185 40.2271 52.4318 38.4882 52.4318 36.0894C52.4318 31.9023 53.8965 29.8073 56.8235 29.8073C58.3543 29.8073 59.4779 30.3088 60.1954 31.3098C60.9687 32.3939 61.3566 34.119 61.3566 36.4841C61.3566 40.7049 59.8919 42.8167 56.9649 42.8167C55.4353 42.8167 54.3105 42.3162 53.5942 41.3132M64.984 45.0403L61.4684 43.5329C61.7809 43.3093 62.0786 43.068 62.3467 42.791C63.841 41.2647 64.587 39.0065 64.587 36.0162C64.587 30.5145 62.1026 27.7627 57.1349 27.7627C54.6984 27.7627 52.7991 28.4601 51.4394 29.8577C49.9451 31.385 49.2002 33.6363 49.2002 36.6078C49.2002 39.5307 49.8618 41.6752 51.1828 43.0373C52.3873 44.2688 54.209 44.885 56.6489 44.885C57.5592 44.885 58.3942 44.7881 59.1528 44.5932L63.7304 46.9099L64.9783 45.0403M47.8679 40.0303C47.8679 41.4408 47.2725 42.5981 46.0839 43.5042C44.8953 44.4053 43.2972 44.8583 41.2975 44.8583C39.4268 44.8583 37.6131 44.3371 35.8564 43.3054L36.6789 41.877C38.1903 42.5338 39.558 42.8612 40.7854 42.8612C41.9375 42.8612 42.8386 42.6387 43.4911 42.1985C44.1413 41.7544 44.5325 41.1361 44.5325 40.3517C44.5325 39.3645 43.7397 38.5208 42.2876 37.8126C40.9419 37.1615 39.6012 36.5027 38.2656 35.8362C36.8135 34.9143 36.0846 33.9261 36.0846 32.298C36.0846 30.9508 36.6275 29.8617 37.7123 29.0338C38.7994 28.2029 40.2025 27.7874 41.9203 27.7874C43.6964 27.7874 45.3105 28.1999 46.7649 29.0219L46.0257 30.4493C44.7823 29.9903 43.555 29.7598 42.3447 29.7598C41.3637 29.7598 40.6063 29.9656 40.0793 30.377C39.5488 30.7856 39.2215 31.3118 39.2215 31.9528C39.2215 32.938 40.0314 33.7926 41.5245 34.5147C42.8819 35.1547 45.6299 36.5168 45.6299 36.5168C47.1242 37.4367 47.8691 38.4169 47.8691 40.0322M78.6438 44.6397H79.1514V42.9483H79.8141V42.6021H77.9548V42.9483H78.6438V44.6397ZM82.5027 44.6397H82.9807V42.6021H82.262L81.6768 43.9908L81.0392 42.6021H80.3468V44.6397H80.7997V43.0887H80.8248L81.4921 44.6397H81.8365L82.5027 43.0887V44.6397Z" fill="#F29111"/>
<path d="M51.0276 0.00979115C50.2189 -0.000100449 49.5139 0.264005 49.15 1.0405C48.5261 2.34718 50.074 3.63209 50.6067 4.29582C50.9991 4.75776 51.5079 5.28102 51.7839 5.80231C51.9459 6.14357 51.9927 6.50659 52.1546 6.86764C52.5242 7.75194 52.8698 8.73616 53.3558 9.56112C53.609 9.98349 53.8862 10.4256 54.2102 10.8055C54.3961 11.028 54.7189 11.127 54.7885 11.49C54.4657 11.8906 54.4406 12.494 54.2569 12.9975C53.4242 15.2676 53.7482 18.0808 54.9265 19.7485C55.2961 20.25 56.1744 21.3559 57.3539 20.9335C58.3942 20.5724 58.1638 19.427 58.4626 18.423C58.5322 18.1797 58.4855 18.0204 58.6246 17.8592V17.9007C58.9474 18.4626 59.2725 19.0036 59.5725 19.5684C60.29 20.5517 61.5368 21.5764 62.5771 22.259C63.1304 22.622 63.5695 23.2442 64.2631 23.4657V23.4044H64.2174C64.0783 23.2244 63.8707 23.1433 63.6859 23.0038C63.2695 22.6418 62.8087 22.1996 62.4847 21.797C61.5151 20.6733 60.6585 19.427 59.8976 18.1411C59.5269 17.5169 59.2041 16.8344 58.903 16.2122C58.7649 15.9719 58.7649 15.6088 58.5334 15.4892C58.1855 15.9303 57.6779 16.3131 57.4246 16.8532C56.9855 17.7187 56.9398 18.7831 56.7767 19.8879C56.6855 19.9087 56.7311 19.8879 56.6855 19.9275C55.9463 19.7673 55.6919 19.1045 55.4136 18.5427C54.72 17.1153 54.6037 14.8234 55.206 13.1775C55.3657 12.7561 56.0615 11.4306 55.7832 11.028C55.644 10.6442 55.182 10.4247 54.9276 10.123C54.6056 9.71749 54.3276 9.28702 54.0972 8.83705C53.5428 7.71238 53.2645 6.46604 52.6645 5.34136C52.3873 4.81711 51.9003 4.27604 51.509 3.79432C51.0687 3.25127 50.585 2.86945 50.2371 2.22749C50.1231 2.00592 49.9611 1.64388 50.1459 1.40352C50.1904 1.24228 50.2839 1.18195 50.4698 1.14139C50.7675 0.920807 51.6242 1.20074 51.9242 1.32142C52.7797 1.62212 53.4961 1.90502 54.2113 2.32541C54.5341 2.5272 54.8809 2.90902 55.2972 3.00991H55.7832C56.5223 3.15037 57.355 3.04948 58.0486 3.2305C59.2725 3.57176 60.3813 4.07425 61.376 4.61631C64.4373 6.3137 66.9245 8.6849 68.584 11.488C68.8623 11.9499 68.9787 12.3723 69.2319 12.853C69.7178 13.8402 70.319 14.8442 70.8038 15.8077C71.2886 16.7523 71.7517 17.7167 72.4464 18.5002C72.7909 18.9215 74.1779 19.1431 74.8019 19.3637C75.2639 19.5437 75.9802 19.7049 76.3966 19.9255C77.1837 20.3469 77.9662 20.8296 78.7065 21.2926C79.0761 21.5339 80.2305 22.0354 80.3 22.438C78.4521 22.3984 77.0194 22.5587 75.8171 23.0018C75.4715 23.1215 74.9171 23.1215 74.8703 23.5033C75.0563 23.6636 75.078 23.9247 75.2411 24.1463C75.5183 24.5489 76.0019 25.0899 76.4422 25.3728C76.9282 25.6943 77.4129 26.0148 77.9217 26.2957C78.8228 26.7804 79.8392 27.0603 80.7164 27.5421C81.2263 27.823 81.7339 28.185 82.2426 28.4867C82.4959 28.647 82.6567 28.9091 82.9818 29.008V28.9467C82.8187 28.7666 82.7731 28.5055 82.6122 28.3037C82.3818 28.1039 82.1502 27.9229 81.9187 27.7221C81.2417 26.944 80.4316 26.2602 79.5164 25.6943C78.7761 25.2502 77.1574 24.6468 76.8586 23.9059L76.8118 23.8654C77.3194 23.8248 77.9217 23.6636 78.4076 23.5419C79.1913 23.3609 79.9088 23.4014 80.7175 23.2214C81.0871 23.1403 81.4567 23.0394 81.8286 22.9415V22.7585C81.4099 22.3984 81.1111 21.9147 80.673 21.5735C79.4958 20.6902 78.2 19.8266 76.8597 19.1016C76.1411 18.7 75.2171 18.4398 74.4551 18.0976C74.1791 17.9769 73.7171 17.9175 73.554 17.7157C73.1388 17.2736 72.9061 16.692 72.6072 16.1687C71.924 15.0247 71.292 13.8583 70.7125 12.672C70.2962 11.8886 70.0418 11.1062 69.5342 10.3821C67.1524 6.96556 64.5653 4.89723 60.5912 2.86747C59.7357 2.4451 58.7193 2.26409 57.6345 2.0435C57.055 2.02273 56.479 1.98415 55.9007 1.96437C55.5299 1.82193 55.1592 1.44012 54.8364 1.2591C54.0128 0.807054 52.3771 0.0256174 51.0299 0.0078125L51.0276 0.00979115ZM56.7288 4.97636C56.3364 4.97636 56.0604 5.01791 55.782 5.07726V5.11682H55.8265C56.0124 5.4383 56.3364 5.66086 56.5657 5.94178C56.7516 6.26326 56.9136 6.58375 57.0984 6.90522L57.144 6.86566C57.4691 6.66486 57.6311 6.34338 57.6311 5.86067C57.4908 5.71922 57.4691 5.57975 57.3528 5.4383C57.2147 5.23849 56.9136 5.13759 56.7288 4.97636Z" fill="#00758F"/>
</g>
<defs>
<clipPath id="clip0_115_49">
<rect y="-0.00012207" width="83" height="49" fill="white"/>
</clipPath>
</defs>
</svg>
