<svg width="82" height="82" viewBox="0 0 82 82" fill="none" xmlns="http://www.w3.org/2000/svg">
<g clip-path="url(#clip0_115_146)">
<path d="M40.9645 81.7927L17.2999 75.2232L12.0263 16.0741H69.9736L64.6945 75.214L40.9645 81.7927Z" fill="#264DE4"/>
<path d="M60.175 71.4482L64.6864 20.9104H41V76.7642L60.175 71.4482Z" fill="#2965F1"/>
<path d="M24.1158 42.848L24.766 50.1023H41V42.848H24.1158Z" fill="#EBEBEB"/>
<path d="M22.8094 28.1649L23.4688 35.4194H41V28.1649H22.8094Z" fill="#EBEBEB"/>
<path d="M41 61.6884L40.9682 61.6969L32.8889 59.5153L32.3724 53.7296H25.0901L26.1065 65.1201L40.9666 69.2453L41 69.2361V61.6884Z" fill="#EBEBEB"/>
<path d="M25.6638 -0.00012207H34.4502V3.67417H29.3381V7.34845H34.4502V11.0227H25.6638V-0.00012207Z" fill="black"/>
<path d="M36.2075 -0.00012207H44.9938V3.19491H39.8817V3.83392H44.9938V11.1825H36.2075V7.82771H41.3195V7.1887H36.2075V-0.00012207Z" fill="black"/>
<path d="M46.751 -0.00012207H55.5374V3.19491H50.4253V3.83392H55.5374V11.1825H46.751V7.82771H51.8631V7.1887H46.751V-0.00012207Z" fill="black"/>
<path d="M57.8377 42.848L59.1473 28.1649H40.9749V35.4194H51.1971L50.537 42.848H40.9749V50.1023H49.9079L49.0659 59.5107L40.9749 61.6945V69.2419L55.8468 65.1201L55.9559 63.8945L57.6607 44.796L57.8377 42.848Z" fill="white"/>
</g>
<defs>
<clipPath id="clip0_115_146">
<rect width="82" height="82" fill="white"/>
</clipPath>
</defs>
</svg>
