<svg width="68" height="68" viewBox="0 0 68 68" fill="none" xmlns="http://www.w3.org/2000/svg">
<g clip-path="url(#clip0_115_122)">
<path d="M57.8 -0.00012207H10.2C4.5667 -0.00012207 0 4.56657 0 10.1999V57.7999C0 63.4332 4.5667 67.9999 10.2 67.9999H57.8C63.4333 67.9999 68 63.4332 68 57.7999V10.1999C68 4.56657 63.4333 -0.00012207 57.8 -0.00012207Z" fill="#F7DF1E"/>
<path d="M43.0312 49.1405C44.3594 51.3983 46.2188 52.9921 49.2734 52.9921C51.9297 52.9921 53.6562 51.6639 53.6562 49.8046C53.6562 47.6796 51.9297 46.8827 49.0078 45.5546L47.4141 44.8905C42.7656 42.8983 39.7109 40.5077 39.7109 35.328C39.7109 30.5468 43.2969 26.828 49.0078 26.828C53.125 26.828 56.0469 28.2889 58.0391 32.0077L53.125 35.1952C52.0625 33.203 50.8672 32.4061 49.0078 32.4061C47.1484 32.4061 45.9531 33.6014 45.9531 35.1952C45.9531 37.0546 47.1484 37.8514 49.9375 39.0468L51.5312 39.7108C56.9766 42.1014 60.0312 44.3593 60.0312 49.8046C60.0312 55.5155 55.5156 58.703 49.4062 58.703C43.4297 58.703 39.5781 55.9139 37.7188 52.1952L43.0312 49.1405ZM20.4531 49.6718C21.5156 51.3983 22.3125 52.9921 24.5703 52.9921C26.6953 52.9921 28.0234 52.1952 28.0234 49.0077V26.9608H34.3984V48.7421C34.3984 55.3827 30.5469 58.3046 24.8359 58.3046C19.6562 58.3046 16.7344 55.6483 15.2734 52.4608L20.4531 49.6718Z" fill="black"/>
</g>
<defs>
<clipPath id="clip0_115_122">
<rect width="68" height="68" fill="white"/>
</clipPath>
</defs>
</svg>
